<svg xmlns="http://www.w3.org/2000/svg" xmlns:xlink="http://www.w3.org/1999/xlink" width="500" zoomAndPan="magnify" viewBox="0 0 375 374.999991" height="500" preserveAspectRatio="xMidYMid meet" version="1.0"><path fill="#ffffff" d="M 143.101562 245.972656 L 147.542969 207.300781 L 147.777344 205.265625 L 147.777344 163.117188 C 147.777344 159.421875 150.777344 156.421875 154.472656 156.421875 L 240.308594 156.421875 L 240.308594 76.070312 C 240.308594 73.367188 241.933594 70.929688 244.425781 69.890625 C 246.925781 68.847656 249.804688 69.414062 251.71875 71.316406 L 280.226562 99.582031 L 307.800781 72.074219 L 246.421875 0.0117188 L 216.429688 0.0117188 C 213.140625 23.898438 192.675781 42.375 167.925781 42.375 C 143.175781 42.375 122.707031 23.898438 119.425781 0.0117188 L 89.429688 0.0117188 L 28.132812 72.082031 L 55.632812 99.582031 L 84.132812 71.324219 C 86.054688 69.421875 88.941406 68.851562 91.425781 69.898438 C 93.925781 70.933594 95.542969 73.371094 95.542969 76.078125 L 95.542969 245.980469 L 143.109375 245.980469 Z M 143.101562 245.972656 " fill-opacity="1" fill-rule="nonzero"/><path fill="#ffffff" d="M 161.167969 169.816406 L 161.167969 198.964844 L 327.261719 198.964844 L 327.261719 169.816406 Z M 161.167969 169.816406 " fill-opacity="1" fill-rule="nonzero"/><path fill="#ffffff" d="M 160.445312 212.355469 L 160.039062 215.941406 L 141.871094 375 L 214.761719 375 L 237.691406 273.996094 C 238.386719 270.945312 241.089844 268.78125 244.21875 268.78125 C 247.347656 268.78125 250.058594 270.949219 250.746094 273.996094 L 273.582031 375 L 346.464844 375 L 327.976562 212.355469 Z M 160.445312 212.355469 " fill-opacity="1" fill-rule="nonzero"/><path fill="#ffffff" d="M 167.925781 28.980469 C 185.285156 28.980469 199.773438 16.492188 202.921875 0.0117188 L 132.9375 0.0117188 C 136.085938 16.488281 150.574219 28.980469 167.933594 28.980469 Z M 167.925781 28.980469 " fill-opacity="1" fill-rule="nonzero"/><path fill="#ffffff" d="M 143.101562 245.972656 L 147.542969 207.300781 L 147.777344 205.265625 L 147.777344 163.117188 C 147.777344 159.421875 150.777344 156.421875 154.472656 156.421875 L 240.308594 156.421875 L 240.308594 76.070312 C 240.308594 73.367188 241.933594 70.929688 244.425781 69.890625 C 246.925781 68.847656 249.804688 69.414062 251.71875 71.316406 L 280.226562 99.582031 L 307.800781 72.074219 L 246.421875 0.0117188 L 216.429688 0.0117188 C 213.140625 23.898438 192.675781 42.375 167.925781 42.375 C 143.175781 42.375 122.707031 23.898438 119.425781 0.0117188 L 89.429688 0.0117188 L 28.132812 72.082031 L 55.632812 99.582031 L 84.132812 71.324219 C 86.054688 69.421875 88.941406 68.851562 91.425781 69.898438 C 93.925781 70.933594 95.542969 73.371094 95.542969 76.078125 L 95.542969 245.980469 L 143.109375 245.980469 Z M 143.101562 245.972656 " fill-opacity="1" fill-rule="nonzero"/><path fill="#ffffff" d="M 161.167969 169.816406 L 161.167969 198.964844 L 327.261719 198.964844 L 327.261719 169.816406 Z M 161.167969 169.816406 " fill-opacity="1" fill-rule="nonzero"/><path fill="#ffffff" d="M 160.445312 212.355469 L 160.039062 215.941406 L 141.871094 375 L 214.761719 375 L 237.691406 273.996094 C 238.386719 270.945312 241.089844 268.78125 244.21875 268.78125 C 247.347656 268.78125 250.058594 270.949219 250.746094 273.996094 L 273.582031 375 L 346.464844 375 L 327.976562 212.355469 Z M 160.445312 212.355469 " fill-opacity="1" fill-rule="nonzero"/><path fill="#ffffff" d="M 167.925781 28.980469 C 185.285156 28.980469 199.773438 16.492188 202.921875 0.0117188 L 132.9375 0.0117188 C 136.085938 16.488281 150.574219 28.980469 167.933594 28.980469 Z M 167.925781 28.980469 " fill-opacity="1" fill-rule="nonzero"/></svg>