<svg xmlns="http://www.w3.org/2000/svg" xmlns:xlink="http://www.w3.org/1999/xlink" width="500" zoomAndPan="magnify" viewBox="0 0 375 374.999991" height="500" preserveAspectRatio="xMidYMid meet" version="1.0"><defs><clipPath id="c4ccee88b4"><path d="M 37.5 281 L 343.5 281 L 343.5 375 L 37.5 375 Z M 37.5 281 " clip-rule="nonzero"/></clipPath><clipPath id="ca62459f48"><path d="M 67 1.269531 L 311 1.269531 L 311 346 L 67 346 Z M 67 1.269531 " clip-rule="nonzero"/></clipPath><clipPath id="b00e94c20b"><path d="M 37.5 277 L 343.5 277 L 343.5 375 L 37.5 375 Z M 37.5 277 " clip-rule="nonzero"/></clipPath></defs><path fill="#090504" d="M 218.789062 289.183594 C 285.214844 293.003906 335.289062 310.074219 335.289062 330.550781 C 335.289062 353.824219 270.472656 372.714844 190.476562 372.714844 C 110.503906 372.714844 45.664062 353.824219 45.664062 330.550781 C 45.664062 310.3125 94.582031 293.417969 159.839844 289.3125 C 171.710938 308.210938 182.230469 325.054688 189.191406 337.601562 C 196.390625 324.613281 206.960938 307.816406 218.789062 289.183594 Z M 218.789062 289.183594 " fill-opacity="1" fill-rule="nonzero"/><path fill="#d6030d" d="M 189.191406 9.59375 C 251.863281 9.59375 302.671875 60.40625 302.671875 123.09375 C 302.671875 158.472656 254.859375 232.375 218.789062 289.183594 C 206.960938 307.816406 196.390625 324.613281 189.191406 337.601562 C 182.230469 325.054688 171.710938 308.210938 159.839844 289.3125 C 123.960938 232.222656 75.695312 156.320312 75.695312 123.09375 C 75.695312 60.40625 126.503906 9.59375 189.191406 9.59375 Z M 239.894531 118.8125 C 239.894531 90.867188 217.121094 68.085938 189.191406 68.085938 C 161.246094 68.085938 138.472656 90.867188 138.472656 118.8125 C 138.472656 146.742188 161.246094 169.515625 189.191406 169.515625 C 217.121094 169.515625 239.894531 146.742188 239.894531 118.8125 Z M 239.894531 118.8125 " fill-opacity="1" fill-rule="nonzero"/><g clip-path="url(#c4ccee88b4)"><path fill="#ffffff" d="M 190.476562 380.894531 C 151.050781 380.894531 113.871094 376.390625 85.792969 368.214844 C 54.1875 359.011719 37.484375 345.988281 37.484375 330.550781 C 37.484375 299.746094 103.121094 284.683594 159.328125 281.148438 C 163.824219 280.855469 167.722656 284.289062 168.003906 288.800781 C 168.289062 293.308594 164.863281 297.195312 160.351562 297.476562 C 129.234375 299.4375 101.0625 304.445312 81.027344 311.589844 C 60.964844 318.738281 53.84375 326.273438 53.84375 330.550781 C 53.84375 334.753906 61.535156 344.109375 90.367188 352.503906 C 117.003906 360.261719 152.554688 364.535156 190.476562 364.535156 C 228.40625 364.535156 263.964844 360.261719 290.59375 352.503906 C 319.417969 344.109375 327.109375 334.757812 327.109375 330.550781 C 327.109375 319.539062 288.367188 301.378906 218.320312 297.347656 C 213.808594 297.089844 210.363281 293.222656 210.621094 288.710938 C 210.882812 284.199219 214.738281 280.742188 219.261719 281.015625 C 276.558594 284.308594 343.46875 299.261719 343.46875 330.550781 C 343.46875 345.988281 326.769531 359.011719 295.171875 368.214844 C 267.09375 376.390625 229.914062 380.894531 190.476562 380.894531 Z M 190.476562 380.894531 " fill-opacity="1" fill-rule="nonzero"/></g><g clip-path="url(#ca62459f48)"><path fill="#ffffff" d="M 189.191406 345.78125 C 186.21875 345.78125 183.480469 344.171875 182.039062 341.570312 C 175.277344 329.386719 164.847656 312.664062 152.914062 293.664062 L 152.914062 293.667969 L 150.144531 289.261719 C 113.332031 230.707031 67.515625 157.832031 67.515625 123.09375 C 67.515625 56 122.097656 1.414062 189.191406 1.414062 C 256.277344 1.414062 310.855469 56 310.855469 123.09375 C 310.855469 159.566406 267.726562 227.425781 229.675781 287.300781 L 225.695312 293.566406 C 213.855469 312.21875 203.472656 328.707031 196.347656 341.566406 C 194.90625 344.167969 192.167969 345.78125 189.195312 345.78125 C 189.195312 345.78125 189.191406 345.78125 189.191406 345.78125 Z M 189.191406 17.777344 C 131.121094 17.777344 83.875 65.019531 83.875 123.09375 C 83.875 153.117188 130.183594 226.773438 163.996094 280.554688 L 166.765625 284.960938 C 175.488281 298.847656 183.050781 310.941406 189.191406 321.253906 C 195.609375 310.5 203.378906 298.195312 211.882812 284.796875 L 215.867188 278.523438 C 249.050781 226.3125 294.492188 154.804688 294.492188 123.09375 C 294.492188 65.019531 247.253906 17.777344 189.191406 17.777344 Z M 189.191406 17.777344 " fill-opacity="1" fill-rule="nonzero"/></g><path fill="#ffffff" d="M 189.191406 177.699219 C 156.714844 177.699219 130.292969 151.28125 130.292969 118.8125 C 130.292969 86.332031 156.714844 59.90625 189.191406 59.90625 C 221.660156 59.90625 248.074219 86.332031 248.074219 118.8125 C 248.074219 151.28125 221.660156 177.699219 189.191406 177.699219 Z M 189.191406 76.265625 C 165.734375 76.265625 146.652344 95.355469 146.652344 118.8125 C 146.652344 142.261719 165.734375 161.335938 189.191406 161.335938 C 212.640625 161.335938 231.714844 142.261719 231.714844 118.8125 C 231.714844 95.351562 212.640625 76.265625 189.191406 76.265625 Z M 189.191406 76.265625 " fill-opacity="1" fill-rule="nonzero"/><path fill="#090504" d="M 218.789062 285.480469 C 285.214844 289.300781 335.289062 306.375 335.289062 326.851562 C 335.289062 350.125 270.472656 369.011719 190.476562 369.011719 C 110.503906 369.011719 45.664062 350.125 45.664062 326.851562 C 45.664062 306.613281 94.582031 289.71875 159.839844 285.613281 C 171.710938 304.507812 182.230469 321.351562 189.191406 333.902344 C 196.390625 320.910156 206.960938 304.117188 218.789062 285.480469 Z M 218.789062 285.480469 " fill-opacity="1" fill-rule="nonzero"/><path fill="#d6030d" d="M 189.191406 5.894531 C 251.863281 5.894531 302.671875 56.703125 302.671875 119.390625 C 302.671875 154.773438 254.859375 228.675781 218.789062 285.480469 C 206.960938 304.117188 196.390625 320.910156 189.191406 333.902344 C 182.230469 321.351562 171.710938 304.507812 159.839844 285.613281 C 123.960938 228.519531 75.695312 152.621094 75.695312 119.390625 C 75.695312 56.703125 126.503906 5.894531 189.191406 5.894531 Z M 239.894531 115.113281 C 239.894531 87.167969 217.121094 64.386719 189.191406 64.386719 C 161.246094 64.386719 138.472656 87.167969 138.472656 115.113281 C 138.472656 143.042969 161.246094 165.816406 189.191406 165.816406 C 217.121094 165.816406 239.894531 143.042969 239.894531 115.113281 Z M 239.894531 115.113281 " fill-opacity="1" fill-rule="nonzero"/><g clip-path="url(#b00e94c20b)"><path fill="#ffffff" d="M 190.476562 377.195312 C 151.050781 377.195312 113.871094 372.691406 85.792969 364.515625 C 54.1875 355.308594 37.484375 342.285156 37.484375 326.851562 C 37.484375 296.046875 103.121094 280.984375 159.328125 277.445312 C 163.824219 277.15625 167.722656 280.589844 168.003906 285.097656 C 168.289062 289.609375 164.863281 293.492188 160.351562 293.777344 C 129.234375 295.734375 101.0625 300.746094 81.027344 307.886719 C 60.964844 315.039062 53.84375 322.570312 53.84375 326.851562 C 53.84375 331.054688 61.535156 340.410156 90.367188 348.804688 C 117.003906 356.5625 152.554688 360.832031 190.476562 360.832031 C 228.40625 360.832031 263.964844 356.5625 290.59375 348.804688 C 319.417969 340.410156 327.109375 331.054688 327.109375 326.851562 C 327.109375 315.835938 288.367188 297.675781 218.320312 293.648438 C 213.808594 293.390625 210.363281 289.523438 210.621094 285.011719 C 210.882812 280.5 214.738281 277.039062 219.261719 277.3125 C 276.558594 280.609375 343.46875 295.558594 343.46875 326.851562 C 343.46875 342.289062 326.769531 355.3125 295.171875 364.515625 C 267.09375 372.691406 229.914062 377.195312 190.476562 377.195312 Z M 190.476562 377.195312 " fill-opacity="1" fill-rule="nonzero"/></g><path fill="#ffffff" d="M 189.191406 342.082031 C 186.21875 342.082031 183.480469 340.46875 182.039062 337.871094 C 175.277344 325.683594 164.847656 308.964844 152.914062 289.964844 L 150.144531 285.5625 C 113.332031 227.003906 67.515625 154.132812 67.515625 119.390625 C 67.515625 52.296875 122.097656 -2.285156 189.191406 -2.285156 C 256.277344 -2.285156 310.855469 52.296875 310.855469 119.390625 C 310.855469 155.863281 267.726562 223.726562 229.675781 283.597656 L 225.695312 289.867188 C 213.855469 308.519531 203.472656 325.007812 196.347656 337.867188 C 194.90625 340.46875 192.167969 342.082031 189.195312 342.082031 C 189.195312 342.082031 189.191406 342.082031 189.191406 342.082031 Z M 189.191406 14.074219 C 131.121094 14.074219 83.875 61.320312 83.875 119.390625 C 83.875 149.414062 130.183594 223.070312 163.996094 276.851562 L 166.765625 281.257812 C 166.765625 281.261719 166.765625 281.261719 166.765625 281.261719 C 175.488281 295.148438 183.050781 307.242188 189.191406 317.550781 C 195.609375 306.800781 203.378906 294.496094 211.882812 281.097656 L 215.867188 274.824219 C 249.050781 222.609375 294.492188 151.105469 294.492188 119.390625 C 294.492188 61.320312 247.253906 14.074219 189.191406 14.074219 Z M 189.191406 14.074219 " fill-opacity="1" fill-rule="nonzero"/><path fill="#ffffff" d="M 189.191406 173.996094 C 156.714844 173.996094 130.292969 147.582031 130.292969 115.113281 C 130.292969 82.628906 156.714844 56.203125 189.191406 56.203125 C 221.660156 56.203125 248.074219 82.628906 248.074219 115.113281 C 248.074219 147.582031 221.660156 173.996094 189.191406 173.996094 Z M 189.191406 72.566406 C 165.734375 72.566406 146.652344 91.652344 146.652344 115.113281 C 146.652344 138.558594 165.734375 157.636719 189.191406 157.636719 C 212.640625 157.636719 231.714844 138.558594 231.714844 115.113281 C 231.714844 91.652344 212.640625 72.566406 189.191406 72.566406 Z M 189.191406 72.566406 " fill-opacity="1" fill-rule="nonzero"/></svg>