<svg xmlns="http://www.w3.org/2000/svg" xmlns:xlink="http://www.w3.org/1999/xlink" width="500" zoomAndPan="magnify" viewBox="0 0 375 374.999991" height="500" preserveAspectRatio="xMidYMid meet" version="1.0"><defs><clipPath id="d824de57a4"><path d="M 101 86 L 339 86 L 339 300.609375 L 101 300.609375 Z M 101 86 " clip-rule="nonzero"/></clipPath><clipPath id="ee18aa184c"><path d="M 0 158.8125 L 162 158.8125 L 162 374.8125 L 0 374.8125 Z M 0 158.8125 " clip-rule="nonzero"/></clipPath></defs><path fill="#ffffff" d="M 361.90625 116.644531 L 313.90625 81.335938 L 313.90625 39.21875 C 313.90625 32.617188 308.546875 27.277344 301.953125 27.277344 L 282.527344 27.277344 C 275.925781 27.277344 270.574219 32.625 270.574219 39.21875 L 270.574219 49.453125 L 233.976562 22.535156 C 226.035156 16.679688 213.035156 16.679688 205.09375 22.535156 L 77.164062 116.644531 C 69.226562 122.488281 67.511719 133.777344 73.359375 141.726562 L 76.894531 146.527344 C 82.730469 154.476562 94.019531 156.195312 101.949219 150.351562 L 205.09375 74.441406 C 213.035156 68.597656 226.035156 68.597656 233.976562 74.441406 L 337.113281 150.351562 C 345.050781 156.195312 356.332031 154.46875 362.167969 146.527344 L 365.714844 141.726562 C 371.550781 133.777344 369.839844 122.488281 361.90625 116.644531 Z M 361.90625 116.644531 " fill-opacity="1" fill-rule="nonzero"/><g clip-path="url(#d824de57a4)"><path fill="#ffffff" d="M 323.632812 156.953125 L 233.949219 90.671875 C 226.019531 84.804688 213.054688 84.804688 205.125 90.671875 L 115.4375 156.953125 C 107.507812 162.820312 101.015625 171.394531 101.015625 176.042969 L 101.015625 272.144531 C 101.015625 287.746094 114.390625 300.402344 130.898438 300.402344 L 185.667969 300.402344 L 185.667969 215.390625 C 185.667969 208.828125 191.046875 203.457031 197.613281 203.457031 L 241.441406 203.457031 C 248.007812 203.457031 253.382812 208.828125 253.382812 215.390625 L 253.382812 300.402344 L 308.164062 300.402344 C 324.664062 300.402344 338.027344 287.746094 338.027344 272.144531 L 338.027344 176.042969 C 338.039062 171.394531 331.566406 162.820312 323.632812 156.953125 Z M 323.632812 156.953125 " fill-opacity="1" fill-rule="nonzero"/></g><g clip-path="url(#ee18aa184c)"><path fill="#d31718" d="M 81.070312 158.8125 C 36.359375 158.8125 0 195.171875 0 239.882812 C 0 296.078125 73.179688 369.90625 76.289062 373.027344 C 77.609375 374.335938 79.339844 375 81.070312 375 C 82.800781 375 84.53125 374.335938 85.851562 373.027344 C 88.960938 369.90625 162.140625 296.078125 162.140625 239.882812 C 162.140625 195.171875 125.78125 158.8125 81.070312 158.8125 Z M 81.070312 280.417969 C 58.722656 280.417969 40.535156 262.230469 40.535156 239.882812 C 40.535156 217.535156 58.722656 199.347656 81.070312 199.347656 C 103.417969 199.347656 121.605469 217.535156 121.605469 239.882812 C 121.605469 262.230469 103.417969 280.417969 81.070312 280.417969 Z M 81.070312 280.417969 " fill-opacity="1" fill-rule="nonzero"/></g></svg>