<svg xmlns="http://www.w3.org/2000/svg" xmlns:xlink="http://www.w3.org/1999/xlink" width="500" zoomAndPan="magnify" viewBox="0 0 375 374.999991" height="500" preserveAspectRatio="xMidYMid meet" version="1.0"><path fill="#000000" d="M 319.257812 375 L 55.742188 375 C 25.007812 375 0 349.992188 0 319.257812 L 0 55.742188 C 0 25.007812 25.007812 0 55.742188 0 L 319.257812 0 C 349.992188 0 375 25.007812 375 55.742188 L 375 319.257812 C 375 349.992188 349.992188 375 319.257812 375 Z M 55.742188 20.269531 C 36.183594 20.269531 20.269531 36.183594 20.269531 55.742188 L 20.269531 319.257812 C 20.269531 338.816406 36.183594 354.730469 55.742188 354.730469 L 319.257812 354.730469 C 338.816406 354.730469 354.730469 338.816406 354.730469 319.257812 L 354.730469 55.742188 C 354.730469 36.183594 338.816406 20.269531 319.257812 20.269531 Z M 55.742188 20.269531 " fill-opacity="1" fill-rule="nonzero"/><path fill="#000000" d="M 187.5 293.917969 C 128.820312 293.917969 81.082031 246.179688 81.082031 187.5 C 81.082031 128.820312 128.820312 81.082031 187.5 81.082031 C 246.179688 81.082031 293.917969 128.820312 293.917969 187.5 C 293.917969 246.179688 246.179688 293.917969 187.5 293.917969 Z M 187.5 101.351562 C 139.996094 101.351562 101.351562 139.996094 101.351562 187.5 C 101.351562 235.003906 139.996094 273.648438 187.5 273.648438 C 235.003906 273.648438 273.648438 235.003906 273.648438 187.5 C 273.648438 139.996094 235.003906 101.351562 187.5 101.351562 Z M 187.5 101.351562 " fill-opacity="1" fill-rule="nonzero"/><path fill="#000000" d="M 298.988281 111.488281 C 279.425781 111.488281 263.511719 95.574219 263.511719 76.011719 C 263.511719 56.453125 279.425781 40.539062 298.988281 40.539062 C 318.546875 40.539062 334.460938 56.453125 334.460938 76.011719 C 334.460938 95.574219 318.546875 111.488281 298.988281 111.488281 Z M 298.988281 60.8125 C 290.605469 60.8125 283.785156 67.628906 283.785156 76.011719 C 283.785156 84.394531 290.605469 91.214844 298.988281 91.214844 C 307.371094 91.214844 314.1875 84.394531 314.1875 76.011719 C 314.1875 67.628906 307.371094 60.8125 298.988281 60.8125 Z M 298.988281 60.8125 " fill-opacity="1" fill-rule="nonzero"/><path fill="#ffffff" d="M 319.257812 375 L 55.742188 375 C 25.007812 375 0 349.992188 0 319.257812 L 0 55.742188 C 0 25.007812 25.007812 0 55.742188 0 L 319.257812 0 C 349.992188 0 375 25.007812 375 55.742188 L 375 319.257812 C 375 349.992188 349.992188 375 319.257812 375 Z M 55.742188 20.269531 C 36.183594 20.269531 20.269531 36.183594 20.269531 55.742188 L 20.269531 319.257812 C 20.269531 338.816406 36.183594 354.730469 55.742188 354.730469 L 319.257812 354.730469 C 338.816406 354.730469 354.730469 338.816406 354.730469 319.257812 L 354.730469 55.742188 C 354.730469 36.183594 338.816406 20.269531 319.257812 20.269531 Z M 55.742188 20.269531 " fill-opacity="1" fill-rule="nonzero"/><path fill="#ffffff" d="M 187.5 293.917969 C 128.820312 293.917969 81.082031 246.179688 81.082031 187.5 C 81.082031 128.820312 128.820312 81.082031 187.5 81.082031 C 246.179688 81.082031 293.917969 128.820312 293.917969 187.5 C 293.917969 246.179688 246.179688 293.917969 187.5 293.917969 Z M 187.5 101.351562 C 139.996094 101.351562 101.351562 139.996094 101.351562 187.5 C 101.351562 235.003906 139.996094 273.648438 187.5 273.648438 C 235.003906 273.648438 273.648438 235.003906 273.648438 187.5 C 273.648438 139.996094 235.003906 101.351562 187.5 101.351562 Z M 187.5 101.351562 " fill-opacity="1" fill-rule="nonzero"/><path fill="#ffffff" d="M 298.988281 111.488281 C 279.425781 111.488281 263.511719 95.574219 263.511719 76.011719 C 263.511719 56.453125 279.425781 40.539062 298.988281 40.539062 C 318.546875 40.539062 334.460938 56.453125 334.460938 76.011719 C 334.460938 95.574219 318.546875 111.488281 298.988281 111.488281 Z M 298.988281 60.8125 C 290.605469 60.8125 283.785156 67.628906 283.785156 76.011719 C 283.785156 84.394531 290.605469 91.214844 298.988281 91.214844 C 307.371094 91.214844 314.1875 84.394531 314.1875 76.011719 C 314.1875 67.628906 307.371094 60.8125 298.988281 60.8125 Z M 298.988281 60.8125 " fill-opacity="1" fill-rule="nonzero"/></svg>