<svg xmlns="http://www.w3.org/2000/svg" xmlns:xlink="http://www.w3.org/1999/xlink" width="500" zoomAndPan="magnify" viewBox="0 0 375 374.999991" height="500" preserveAspectRatio="xMidYMid meet" version="1.0"><defs><clipPath id="eac1abf772"><path d="M 35.785156 73.042969 L 264.535156 73.042969 L 264.535156 301.792969 L 35.785156 301.792969 Z M 35.785156 73.042969 " clip-rule="nonzero"/></clipPath><clipPath id="82318ea754"><path d="M 185 89.96875 L 322 89.96875 L 322 289 L 185 289 Z M 185 89.96875 " clip-rule="nonzero"/></clipPath><clipPath id="842ae1e449"><path d="M 167.773438 280 L 339.523438 280 L 339.523438 302 L 167.773438 302 Z M 167.773438 280 " clip-rule="nonzero"/></clipPath></defs><g clip-path="url(#eac1abf772)"><path fill="#ffffff" d="M 150.15625 73.042969 C 119.824219 73.042969 90.734375 85.09375 69.285156 106.542969 C 47.835938 127.992188 35.789062 157.085938 35.789062 187.417969 C 35.789062 217.753906 47.835938 246.84375 69.285156 268.292969 C 90.734375 289.742188 119.824219 301.792969 150.15625 301.792969 C 180.488281 301.792969 209.582031 289.742188 231.027344 268.292969 C 252.476562 246.84375 264.527344 217.753906 264.527344 187.417969 C 264.527344 157.085938 252.476562 127.992188 231.027344 106.542969 C 209.582031 85.09375 180.488281 73.042969 150.15625 73.042969 Z M 108.585938 96.347656 L 143.039062 116.449219 L 143.039062 140.753906 L 103.453125 168.660156 L 81.148438 160.554688 L 72.199219 124.640625 C 81.972656 112.515625 94.425781 102.832031 108.585938 96.347656 Z M 50.570312 197.3125 L 76.6875 174.152344 L 98.792969 182.171875 L 113.730469 229.207031 L 103.480469 244.550781 L 67.984375 244.550781 C 58.226562 230.558594 52.230469 214.289062 50.570312 197.3125 Z M 126.898438 284.765625 L 115.246094 252.671875 L 125.394531 237.472656 L 174.960938 237.472656 L 185.125 252.671875 L 173.472656 284.765625 C 158.164062 288.421875 142.207031 288.421875 126.898438 284.765625 Z M 232.332031 244.550781 L 196.90625 244.550781 L 186.613281 229.179688 L 201.265625 182.1875 L 223.667969 174.125 L 249.746094 197.3125 C 248.085938 214.289062 242.089844 230.558594 232.332031 244.550781 Z M 228.1875 124.742188 L 219.234375 160.527344 L 196.589844 168.675781 L 157.320312 140.769531 L 157.320312 116.464844 L 191.757812 96.347656 C 205.941406 102.847656 218.414062 112.566406 228.1875 124.726562 Z M 228.1875 124.742188 " fill-opacity="1" fill-rule="nonzero"/></g><g clip-path="url(#82318ea754)"><path fill="#ff914d" d="M 245.371094 95.980469 L 185.3125 288.988281 L 321.769531 288.988281 L 261.710938 95.980469 C 261.4375 95.109375 261.035156 94.304688 260.507812 93.5625 C 259.976562 92.820312 259.34375 92.179688 258.609375 91.640625 C 257.875 91.101562 257.074219 90.6875 256.207031 90.40625 C 255.339844 90.121094 254.453125 89.980469 253.542969 89.980469 C 252.628906 89.980469 251.742188 90.121094 250.875 90.40625 C 250.007812 90.6875 249.207031 91.101562 248.472656 91.640625 C 247.738281 92.179688 247.105469 92.820312 246.574219 93.5625 C 246.046875 94.304688 245.644531 95.109375 245.371094 95.980469 Z M 245.371094 95.980469 " fill-opacity="1" fill-rule="nonzero"/></g><g clip-path="url(#842ae1e449)"><path fill="#ff914d" d="M 328.734375 280.960938 L 178.332031 280.960938 C 177.644531 280.960938 176.964844 281.027344 176.289062 281.160156 C 175.617188 281.296875 174.960938 281.496094 174.324219 281.757812 C 173.691406 282.019531 173.085938 282.34375 172.515625 282.726562 C 171.941406 283.109375 171.414062 283.542969 170.925781 284.027344 C 170.441406 284.515625 170.007812 285.042969 169.625 285.617188 C 169.242188 286.1875 168.917969 286.792969 168.65625 287.425781 C 168.394531 288.0625 168.195312 288.71875 168.058594 289.390625 C 167.925781 290.066406 167.859375 290.746094 167.859375 291.433594 C 167.859375 292.125 167.925781 292.804688 168.058594 293.480469 C 168.195312 294.152344 168.394531 294.808594 168.65625 295.445312 C 168.917969 296.078125 169.242188 296.683594 169.625 297.253906 C 170.007812 297.828125 170.441406 298.355469 170.925781 298.84375 C 171.414062 299.328125 171.941406 299.761719 172.515625 300.144531 C 173.085938 300.527344 173.691406 300.847656 174.324219 301.113281 C 174.960938 301.375 175.617188 301.574219 176.289062 301.707031 C 176.964844 301.84375 177.644531 301.910156 178.332031 301.910156 L 328.734375 301.910156 C 329.425781 301.910156 330.105469 301.84375 330.78125 301.707031 C 331.453125 301.574219 332.109375 301.375 332.746094 301.113281 C 333.378906 300.847656 333.984375 300.527344 334.554688 300.144531 C 335.128906 299.761719 335.65625 299.328125 336.144531 298.84375 C 336.628906 298.355469 337.0625 297.828125 337.445312 297.253906 C 337.828125 296.683594 338.148438 296.078125 338.414062 295.445312 C 338.675781 294.808594 338.875 294.152344 339.007812 293.480469 C 339.144531 292.804688 339.210938 292.125 339.210938 291.433594 C 339.210938 290.746094 339.144531 290.066406 339.007812 289.390625 C 338.875 288.71875 338.675781 288.0625 338.414062 287.425781 C 338.148438 286.792969 337.828125 286.1875 337.445312 285.617188 C 337.0625 285.042969 336.628906 284.515625 336.144531 284.027344 C 335.65625 283.542969 335.128906 283.109375 334.554688 282.726562 C 333.984375 282.34375 333.378906 282.019531 332.746094 281.757812 C 332.109375 281.496094 331.453125 281.296875 330.78125 281.160156 C 330.105469 281.027344 329.425781 280.960938 328.734375 280.960938 Z M 328.734375 280.960938 " fill-opacity="1" fill-rule="nonzero"/></g><path fill="#ffffff" d="M 234.9375 129.511719 L 222.929688 168.097656 L 284.152344 168.097656 L 272.148438 129.511719 Z M 234.9375 129.511719 " fill-opacity="1" fill-rule="nonzero"/><path fill="#ffffff" d="M 310.980469 254.328125 L 298.976562 215.742188 L 208.109375 215.742188 L 196.101562 254.328125 Z M 310.980469 254.328125 " fill-opacity="1" fill-rule="nonzero"/></svg>