<svg xmlns="http://www.w3.org/2000/svg" xmlns:xlink="http://www.w3.org/1999/xlink" width="500" zoomAndPan="magnify" viewBox="0 0 375 374.999991" height="500" preserveAspectRatio="xMidYMid meet" version="1.0"><defs><clipPath id="2bdf6b7b9b"><path d="M 31.773438 72.261719 L 297.273438 72.261719 L 297.273438 268.761719 L 31.773438 268.761719 Z M 31.773438 72.261719 " clip-rule="nonzero"/></clipPath><clipPath id="0fad0c3549"><path d="M 230.316406 188.570312 L 341.316406 188.570312 L 341.316406 299.457031 L 230.316406 299.457031 Z M 230.316406 188.570312 " clip-rule="nonzero"/></clipPath><clipPath id="63f3d04528"><path d="M 228.183594 186.324219 L 342.933594 186.324219 L 342.933594 301.074219 L 228.183594 301.074219 Z M 228.183594 186.324219 " clip-rule="nonzero"/></clipPath></defs><g clip-path="url(#2bdf6b7b9b)"><path fill="#ffffff" d="M 31.773438 72.484375 L 297.273438 72.484375 L 297.273438 268.539062 L 31.773438 268.539062 Z M 193.992188 162.945312 L 168.859375 148.429688 L 143.726562 133.910156 C 140.980469 132.320312 137.796875 132.320312 134.964844 133.910156 C 132.21875 135.503906 130.628906 138.25 130.628906 141.523438 L 130.628906 199.589844 C 130.628906 202.773438 132.21875 205.519531 134.964844 207.199219 C 137.707031 208.792969 140.894531 208.792969 143.726562 207.199219 L 193.992188 178.167969 C 196.738281 176.574219 198.328125 173.832031 198.328125 170.554688 C 198.328125 167.28125 196.738281 164.625 193.992188 162.945312 Z M 37.789062 81.421875 L 60.179688 81.421875 L 60.179688 103.816406 L 37.789062 103.816406 Z M 83.988281 81.421875 L 106.378906 81.421875 L 106.378906 103.816406 L 83.988281 103.816406 Z M 130.183594 81.421875 L 152.574219 81.421875 L 152.574219 103.816406 L 130.183594 103.816406 Z M 176.46875 81.421875 L 198.859375 81.421875 L 198.859375 103.816406 L 176.46875 103.816406 Z M 222.667969 81.421875 L 245.058594 81.421875 L 245.058594 103.816406 L 222.667969 103.816406 Z M 268.863281 81.421875 L 291.253906 81.421875 L 291.253906 103.816406 L 268.863281 103.816406 Z M 37.789062 237.207031 L 60.179688 237.207031 L 60.179688 259.601562 L 37.789062 259.601562 Z M 83.988281 237.207031 L 106.378906 237.207031 L 106.378906 259.601562 L 83.988281 259.601562 Z M 130.183594 237.207031 L 152.574219 237.207031 L 152.574219 259.601562 L 130.183594 259.601562 Z M 176.46875 237.207031 L 198.859375 237.207031 L 198.859375 259.601562 L 176.46875 259.601562 Z M 222.667969 237.207031 L 245.058594 237.207031 L 245.058594 259.601562 L 222.667969 259.601562 Z M 268.863281 237.207031 L 291.253906 237.207031 L 291.253906 259.601562 L 268.863281 259.601562 Z M 268.863281 237.207031 " fill-opacity="1" fill-rule="evenodd"/></g><g clip-path="url(#0fad0c3549)"><path fill="#000000" d="M 341.203125 244.015625 C 341.203125 274.632812 316.378906 299.457031 285.757812 299.457031 C 255.140625 299.457031 230.316406 274.632812 230.316406 244.015625 C 230.316406 213.394531 255.140625 188.570312 285.757812 188.570312 C 316.378906 188.570312 341.203125 213.394531 341.203125 244.015625 Z M 341.203125 244.015625 " fill-opacity="1" fill-rule="nonzero"/></g><path fill="#686868" d="M 296.882812 265.21875 L 263.1875 265.21875 C 260.6875 265.21875 258.664062 263.191406 258.664062 260.691406 L 258.664062 226.996094 C 258.664062 224.5 260.6875 222.472656 263.1875 222.472656 L 296.882812 222.472656 C 299.382812 222.472656 301.40625 224.5 301.40625 226.996094 L 301.40625 260.691406 C 301.40625 263.191406 299.382812 265.21875 296.882812 265.21875 " fill-opacity="1" fill-rule="nonzero"/><path fill="#686868" d="M 318.929688 259.765625 L 306.667969 253.222656 C 305.859375 252.792969 305.355469 251.953125 305.355469 251.035156 L 305.355469 236.652344 C 305.355469 235.738281 305.859375 234.898438 306.667969 234.464844 L 318.929688 227.921875 C 320.582031 227.042969 322.578125 228.238281 322.578125 230.109375 L 322.578125 257.578125 C 322.578125 259.453125 320.582031 260.648438 318.929688 259.765625 " fill-opacity="1" fill-rule="nonzero"/><g clip-path="url(#63f3d04528)"><path fill="#686868" d="M 285.703125 191.242188 C 256.695312 191.242188 233.097656 214.839844 233.097656 243.84375 C 233.097656 272.851562 256.695312 296.449219 285.703125 296.449219 C 314.710938 296.449219 338.308594 272.851562 338.308594 243.84375 C 338.308594 214.839844 314.710938 191.242188 285.703125 191.242188 Z M 285.703125 301.367188 C 277.9375 301.367188 270.40625 299.84375 263.3125 296.84375 C 256.464844 293.949219 250.3125 289.800781 245.027344 284.519531 C 239.746094 279.238281 235.601562 273.085938 232.703125 266.234375 C 229.703125 259.144531 228.183594 251.609375 228.183594 243.84375 C 228.183594 236.082031 229.703125 228.546875 232.703125 221.453125 C 235.601562 214.605469 239.746094 208.453125 245.027344 203.171875 C 250.3125 197.890625 256.464844 193.742188 263.3125 190.84375 C 270.40625 187.84375 277.9375 186.324219 285.703125 186.324219 C 293.46875 186.324219 301 187.84375 308.09375 190.84375 C 314.945312 193.742188 321.09375 197.890625 326.378906 203.171875 C 331.660156 208.453125 335.804688 214.605469 338.703125 221.453125 C 341.703125 228.546875 343.226562 236.082031 343.226562 243.84375 C 343.226562 251.609375 341.703125 259.144531 338.703125 266.234375 C 335.804688 273.085938 331.660156 279.238281 326.378906 284.519531 C 321.09375 289.800781 314.945312 293.949219 308.09375 296.84375 C 301 299.84375 293.46875 301.367188 285.703125 301.367188 " fill-opacity="1" fill-rule="nonzero"/></g></svg>