<svg xmlns="http://www.w3.org/2000/svg" xmlns:xlink="http://www.w3.org/1999/xlink" width="500" zoomAndPan="magnify" viewBox="0 0 375 374.999991" height="500" preserveAspectRatio="xMidYMid meet" version="1.0"><defs><clipPath id="0f690f9fba"><path d="M 68.132812 68.378906 L 306.632812 68.378906 L 306.632812 306.632812 L 68.132812 306.632812 Z M 68.132812 68.378906 " clip-rule="nonzero"/></clipPath><clipPath id="4e670e9849"><path d="M 234 74 L 329.449219 74 L 329.449219 244 L 234 244 Z M 234 74 " clip-rule="nonzero"/></clipPath><clipPath id="dfc72479c3"><path d="M 45.199219 74 L 141 74 L 141 244 L 45.199219 244 Z M 45.199219 74 " clip-rule="nonzero"/></clipPath><clipPath id="af4a6189de"><path d="M 87 76 L 288 76 L 288 302.652344 L 87 302.652344 Z M 87 76 " clip-rule="nonzero"/></clipPath></defs><g clip-path="url(#0f690f9fba)"><path fill="#686868" d="M 306.613281 187.617188 C 306.613281 253.46875 253.226562 306.855469 187.375 306.855469 C 121.519531 306.855469 68.132812 253.46875 68.132812 187.617188 C 68.132812 121.765625 121.519531 68.378906 187.375 68.378906 C 253.226562 68.378906 306.613281 121.765625 306.613281 187.617188 Z M 306.613281 187.617188 " fill-opacity="1" fill-rule="nonzero"/></g><g clip-path="url(#4e670e9849)"><path fill="#ffffff" d="M 261.640625 142.804688 C 261.640625 166.117188 252.457031 187.746094 237.28125 202.78125 L 240.839844 204.320312 C 260.136719 212.636719 275.722656 226.566406 286.035156 243.902344 L 329.808594 243.902344 L 327.488281 228.113281 C 324.355469 206.757812 310.375 188.550781 290.550781 180.003906 L 269.316406 170.851562 C 286.875 164.160156 299.523438 145.640625 299.523438 123.789062 C 299.523438 96.304688 279.539062 74.019531 254.890625 74.019531 C 247.355469 74.019531 240.324219 76.199219 234.132812 79.917969 C 250.894531 94.78125 261.640625 117.4375 261.640625 142.804688 " fill-opacity="1" fill-rule="nonzero"/></g><g clip-path="url(#dfc72479c3)"><path fill="#ffffff" d="M 134.15625 204.320312 L 137.71875 202.785156 C 122.539062 187.746094 113.355469 166.117188 113.355469 142.804688 C 113.355469 117.4375 124.101562 94.78125 140.863281 79.917969 C 134.671875 76.199219 127.640625 74.019531 120.109375 74.019531 C 95.457031 74.019531 75.472656 96.304688 75.472656 123.789062 C 75.472656 145.640625 88.117188 164.160156 105.679688 170.851562 L 84.445312 180.003906 C 64.621094 188.550781 50.644531 206.757812 47.507812 228.113281 L 45.1875 243.902344 L 88.960938 243.902344 C 99.273438 226.566406 114.863281 212.636719 134.15625 204.320312 " fill-opacity="1" fill-rule="nonzero"/></g><g clip-path="url(#af4a6189de)"><path fill="#ffffff" d="M 90.699219 281.898438 L 87.605469 302.953125 L 287.390625 302.953125 L 284.296875 281.902344 C 280.117188 253.425781 261.476562 229.148438 235.046875 217.757812 L 206.738281 205.554688 C 230.148438 196.628906 247.011719 171.9375 247.011719 142.804688 C 247.011719 106.152344 220.367188 76.441406 187.5 76.441406 C 154.628906 76.441406 127.984375 106.152344 127.984375 142.804688 C 127.984375 171.9375 144.847656 196.628906 168.265625 205.554688 L 139.949219 217.757812 C 113.519531 229.148438 94.878906 253.425781 90.699219 281.898438 " fill-opacity="1" fill-rule="nonzero"/></g></svg>