<svg xmlns="http://www.w3.org/2000/svg" xmlns:xlink="http://www.w3.org/1999/xlink" width="500" zoomAndPan="magnify" viewBox="0 0 375 374.999991" height="500" preserveAspectRatio="xMidYMid meet" version="1.0"><defs><clipPath id="9eff6d031f"><path d="M 187.5 0 C 83.945312 0 0 83.945312 0 187.5 C 0 291.054688 83.945312 375 187.5 375 C 291.054688 375 375 291.054688 375 187.5 C 375 83.945312 291.054688 0 187.5 0 Z M 187.5 0 " clip-rule="nonzero"/></clipPath></defs><g clip-path="url(#9eff6d031f)"><rect x="-37.5" width="450" fill="#3b0507" y="-37.499999" height="449.999989" fill-opacity="1"/></g><path fill="#d4d0b3" d="M 374.949219 186.710938 C 374.949219 189.78125 374.875 192.847656 374.722656 195.914062 C 374.574219 198.980469 374.347656 202.042969 374.046875 205.097656 C 373.746094 208.152344 373.371094 211.199219 372.921875 214.234375 C 372.46875 217.273438 371.945312 220.296875 371.347656 223.308594 C 370.75 226.320312 370.078125 229.3125 369.332031 232.292969 C 368.585938 235.269531 367.765625 238.226562 366.875 241.167969 C 365.984375 244.105469 365.023438 247.019531 363.988281 249.910156 C 362.957031 252.800781 361.851562 255.664062 360.675781 258.5 C 359.503906 261.335938 358.261719 264.144531 356.949219 266.917969 C 355.636719 269.695312 354.257812 272.433594 352.808594 275.144531 C 351.363281 277.851562 349.851562 280.519531 348.273438 283.15625 C 346.695312 285.789062 345.054688 288.378906 343.351562 290.933594 C 341.644531 293.484375 339.878906 295.996094 338.050781 298.460938 C 336.222656 300.925781 334.335938 303.347656 332.390625 305.722656 C 330.441406 308.09375 328.4375 310.417969 326.378906 312.691406 C 324.316406 314.96875 322.203125 317.191406 320.03125 319.363281 C 317.863281 321.53125 315.640625 323.648438 313.367188 325.710938 C 311.09375 327.773438 308.769531 329.777344 306.398438 331.726562 C 304.027344 333.671875 301.609375 335.5625 299.144531 337.390625 C 296.679688 339.21875 294.171875 340.984375 291.621094 342.691406 C 289.066406 344.398438 286.476562 346.039062 283.84375 347.617188 C 281.210938 349.195312 278.542969 350.710938 275.835938 352.15625 C 273.128906 353.605469 270.390625 354.984375 267.617188 356.296875 C 264.84375 357.609375 262.039062 358.851562 259.203125 360.027344 C 256.367188 361.203125 253.507812 362.308594 250.617188 363.339844 C 247.726562 364.375 244.816406 365.339844 241.878906 366.230469 C 238.941406 367.121094 235.984375 367.941406 233.007812 368.6875 C 230.03125 369.433594 227.039062 370.105469 224.03125 370.703125 C 221.019531 371.300781 217.996094 371.828125 214.960938 372.277344 C 211.925781 372.726562 208.882812 373.105469 205.828125 373.40625 C 202.773438 373.707031 199.714844 373.929688 196.648438 374.082031 C 193.585938 374.234375 190.519531 374.308594 187.449219 374.308594 C 184.382812 374.308594 181.316406 374.234375 178.25 374.082031 C 175.183594 373.929688 172.125 373.707031 169.070312 373.40625 C 166.019531 373.105469 162.972656 372.726562 159.9375 372.277344 C 156.902344 371.828125 153.878906 371.300781 150.871094 370.703125 C 147.859375 370.105469 144.867188 369.433594 141.890625 368.6875 C 138.914062 367.941406 135.957031 367.121094 133.023438 366.230469 C 130.085938 365.339844 127.171875 364.375 124.28125 363.339844 C 121.394531 362.308594 118.53125 361.203125 115.695312 360.027344 C 112.863281 358.851562 110.058594 357.609375 107.285156 356.296875 C 104.507812 354.984375 101.769531 353.605469 99.0625 352.15625 C 96.355469 350.710938 93.6875 349.195312 91.054688 347.617188 C 88.421875 346.039062 85.832031 344.398438 83.28125 342.691406 C 80.730469 340.984375 78.222656 339.21875 75.757812 337.390625 C 73.292969 335.5625 70.875 333.671875 68.5 331.726562 C 66.128906 329.777344 63.804688 327.773438 61.53125 325.710938 C 59.257812 323.648438 57.039062 321.53125 54.867188 319.363281 C 52.699219 317.191406 50.582031 314.96875 48.523438 312.691406 C 46.460938 310.417969 44.457031 308.09375 42.511719 305.722656 C 40.5625 303.347656 38.675781 300.925781 36.847656 298.460938 C 35.019531 295.996094 33.253906 293.484375 31.550781 290.933594 C 29.84375 288.378906 28.203125 285.789062 26.625 283.152344 C 25.046875 280.519531 23.535156 277.851562 22.089844 275.144531 C 20.644531 272.433594 19.265625 269.695312 17.953125 266.917969 C 16.640625 264.140625 15.398438 261.335938 14.222656 258.5 C 13.046875 255.664062 11.945312 252.800781 10.910156 249.910156 C 9.875 247.019531 8.914062 244.105469 8.023438 241.167969 C 7.132812 238.226562 6.316406 235.269531 5.570312 232.292969 C 4.824219 229.3125 4.152344 226.320312 3.554688 223.308594 C 2.953125 220.296875 2.429688 217.273438 1.980469 214.234375 C 1.527344 211.199219 1.152344 208.152344 0.851562 205.097656 C 0.550781 202.042969 0.328125 198.980469 0.175781 195.914062 C 0.0234375 192.847656 -0.0507812 189.78125 -0.0507812 186.710938 C -0.0507812 183.640625 0.0234375 180.570312 0.175781 177.503906 C 0.328125 174.4375 0.550781 171.375 0.851562 168.320312 C 1.152344 165.265625 1.527344 162.21875 1.980469 159.183594 C 2.429688 156.144531 2.953125 153.121094 3.554688 150.109375 C 4.152344 147.097656 4.824219 144.105469 5.570312 141.125 C 6.316406 138.148438 7.132812 135.191406 8.023438 132.253906 C 8.914062 129.3125 9.875 126.398438 10.910156 123.507812 C 11.945312 120.617188 13.046875 117.753906 14.222656 114.917969 C 15.398438 112.082031 16.640625 109.277344 17.953125 106.5 C 19.265625 103.726562 20.644531 100.984375 22.089844 98.277344 C 23.535156 95.566406 25.046875 92.898438 26.625 90.265625 C 28.203125 87.628906 29.84375 85.039062 31.550781 82.484375 C 33.253906 79.933594 35.019531 77.421875 36.847656 74.957031 C 38.675781 72.492188 40.5625 70.070312 42.511719 67.699219 C 44.457031 65.324219 46.460938 63 48.523438 60.726562 C 50.582031 58.449219 52.699219 56.226562 54.867188 54.054688 C 57.039062 51.886719 59.257812 49.769531 61.53125 47.707031 C 63.804688 45.644531 66.128906 43.640625 68.5 41.691406 C 70.875 39.746094 73.292969 37.855469 75.757812 36.027344 C 78.222656 34.199219 80.730469 32.433594 83.28125 30.726562 C 85.832031 29.019531 88.421875 27.378906 91.054688 25.800781 C 93.6875 24.222656 96.355469 22.707031 99.0625 21.261719 C 101.769531 19.8125 104.507812 18.433594 107.285156 17.121094 C 110.058594 15.808594 112.863281 14.566406 115.695312 13.390625 C 118.53125 12.214844 121.394531 11.109375 124.28125 10.078125 C 127.171875 9.042969 130.085938 8.078125 133.023438 7.1875 C 135.957031 6.296875 138.914062 5.476562 141.890625 4.730469 C 144.867188 3.984375 147.859375 3.3125 150.871094 2.714844 C 153.878906 2.117188 156.902344 1.589844 159.9375 1.140625 C 162.972656 0.691406 166.019531 0.3125 169.070312 0.0117188 C 172.125 -0.289062 175.183594 -0.511719 178.25 -0.664062 C 181.316406 -0.816406 184.382812 -0.890625 187.449219 -0.890625 C 190.519531 -0.890625 193.585938 -0.816406 196.648438 -0.664062 C 199.714844 -0.511719 202.773438 -0.289062 205.828125 0.0117188 C 208.882812 0.3125 211.925781 0.691406 214.960938 1.140625 C 217.996094 1.589844 221.019531 2.117188 224.03125 2.714844 C 227.039062 3.3125 230.03125 3.984375 233.007812 4.730469 C 235.984375 5.476562 238.941406 6.296875 241.878906 7.1875 C 244.816406 8.078125 247.726562 9.042969 250.617188 10.078125 C 253.507812 11.109375 256.367188 12.214844 259.203125 13.390625 C 262.039062 14.566406 264.84375 15.808594 267.617188 17.121094 C 270.390625 18.433594 273.128906 19.8125 275.835938 21.261719 C 278.542969 22.707031 281.210938 24.222656 283.84375 25.800781 C 286.476562 27.378906 289.066406 29.019531 291.621094 30.726562 C 294.171875 32.433594 296.679688 34.199219 299.144531 36.027344 C 301.609375 37.855469 304.027344 39.746094 306.398438 41.691406 C 308.769531 43.640625 311.09375 45.644531 313.367188 47.707031 C 315.640625 49.769531 317.863281 51.886719 320.03125 54.054688 C 322.203125 56.226562 324.316406 58.449219 326.378906 60.726562 C 328.4375 63 330.441406 65.324219 332.390625 67.699219 C 334.335938 70.070312 336.222656 72.492188 338.050781 74.957031 C 339.878906 77.421875 341.644531 79.933594 343.351562 82.484375 C 345.054688 85.039062 346.695312 87.628906 348.273438 90.265625 C 349.851562 92.898438 351.363281 95.566406 352.808594 98.277344 C 354.257812 100.984375 355.636719 103.726562 356.949219 106.5 C 358.261719 109.277344 359.503906 112.082031 360.675781 114.917969 C 361.851562 117.753906 362.957031 120.617188 363.988281 123.507812 C 365.023438 126.398438 365.984375 129.3125 366.875 132.253906 C 367.765625 135.191406 368.585938 138.148438 369.332031 141.125 C 370.078125 144.105469 370.75 147.097656 371.347656 150.109375 C 371.945312 153.121094 372.46875 156.144531 372.921875 159.183594 C 373.371094 162.21875 373.746094 165.265625 374.046875 168.320312 C 374.347656 171.375 374.574219 174.4375 374.722656 177.503906 C 374.875 180.570312 374.949219 183.640625 374.949219 186.710938 Z M 374.949219 186.710938 " fill-opacity="1" fill-rule="nonzero"/><path fill="#dedbc3" d="M 188.148438 -0.878906 L 188.148438 374.308594 C 291.382812 373.933594 374.949219 290.09375 374.949219 186.722656 C 374.949219 83.347656 291.378906 -0.488281 188.148438 -0.863281 Z M 188.148438 -0.878906 " fill-opacity="1" fill-rule="nonzero"/><path fill="#57bd84" d="M 351.386719 277.21875 C 309.21875 266.402344 256.929688 259.996094 200.289062 259.996094 C 132.191406 259.996094 70.386719 269.257812 24.886719 284.316406 C 57.578125 339.289062 117.546875 376.128906 186.125 376.128906 C 257.613281 376.128906 319.75 336.097656 351.375 277.21875 Z M 351.386719 277.21875 " fill-opacity="1" fill-rule="nonzero"/><path fill="#67c18c" d="M 200.300781 259.996094 C 195.78125 259.996094 191.292969 260.042969 186.832031 260.121094 L 186.832031 376.121094 C 188.578125 376.113281 190.316406 376.082031 192.046875 376.027344 C 192.867188 376.003906 193.679688 375.960938 194.496094 375.925781 C 195.644531 375.875 196.796875 375.816406 197.941406 375.746094 C 198.78125 375.691406 199.625 375.640625 200.460938 375.578125 C 201.828125 375.472656 203.183594 375.351562 204.539062 375.21875 C 205.523438 375.125 206.507812 375.019531 207.488281 374.90625 C 208.804688 374.757812 210.117188 374.601562 211.421875 374.421875 C 212.246094 374.3125 213.066406 374.191406 213.886719 374.070312 C 215.019531 373.902344 216.148438 373.722656 217.273438 373.535156 C 218.039062 373.40625 218.808594 373.285156 219.570312 373.144531 C 221.28125 372.835938 222.984375 372.507812 224.683594 372.152344 C 225.394531 372.003906 226.097656 371.839844 226.804688 371.683594 C 227.957031 371.429688 229.109375 371.167969 230.25 370.890625 C 231.027344 370.703125 231.800781 370.511719 232.570312 370.316406 C 233.796875 370.003906 235.015625 369.675781 236.234375 369.339844 C 236.855469 369.167969 237.480469 369.003906 238.101562 368.824219 C 239.742188 368.351562 241.371094 367.855469 242.992188 367.335938 C 243.699219 367.113281 244.398438 366.878906 245.097656 366.648438 C 246.226562 366.273438 247.351562 365.890625 248.46875 365.496094 C 249.144531 365.257812 249.824219 365.019531 250.492188 364.773438 C 252.140625 364.175781 253.777344 363.554688 255.398438 362.910156 C 255.882812 362.71875 256.359375 362.511719 256.839844 362.316406 C 258.097656 361.804688 259.347656 361.28125 260.589844 360.742188 C 261.230469 360.464844 261.863281 360.183594 262.5 359.898438 C 263.703125 359.363281 264.894531 358.8125 266.082031 358.25 C 266.582031 358.015625 267.085938 357.785156 267.582031 357.546875 C 269.1875 356.769531 270.777344 355.972656 272.355469 355.152344 C 272.863281 354.890625 273.363281 354.617188 273.867188 354.347656 C 275.046875 353.722656 276.222656 353.085938 277.386719 352.433594 C 277.917969 352.136719 278.453125 351.839844 278.976562 351.539062 C 280.484375 350.679688 281.980469 349.804688 283.460938 348.902344 C 283.597656 348.820312 283.742188 348.734375 283.878906 348.648438 C 285.402344 347.714844 286.910156 346.753906 288.40625 345.777344 C 288.863281 345.480469 289.316406 345.179688 289.769531 344.875 C 290.976562 344.074219 292.171875 343.257812 293.355469 342.429688 C 293.722656 342.171875 294.097656 341.917969 294.464844 341.660156 C 295.984375 340.582031 297.484375 339.484375 298.96875 338.363281 C 299.21875 338.175781 299.464844 337.980469 299.714844 337.792969 C 300.980469 336.828125 302.230469 335.847656 303.464844 334.851562 C 303.835938 334.554688 304.203125 334.257812 304.570312 333.957031 C 305.929688 332.847656 307.277344 331.722656 308.605469 330.574219 C 308.695312 330.5 308.785156 330.425781 308.871094 330.351562 C 310.320312 329.09375 311.75 327.808594 313.164062 326.507812 C 313.425781 326.265625 313.683594 326.015625 313.949219 325.773438 C 315.136719 324.664062 316.308594 323.542969 317.464844 322.40625 C 317.710938 322.167969 317.953125 321.929688 318.199219 321.6875 C 320.9375 318.96875 323.59375 316.164062 326.164062 313.277344 C 326.386719 313.027344 326.605469 312.777344 326.828125 312.527344 C 328.03125 311.160156 329.214844 309.78125 330.378906 308.378906 C 330.441406 308.304688 330.507812 308.226562 330.570312 308.152344 C 331.847656 306.609375 333.101562 305.046875 334.328125 303.464844 C 334.421875 303.34375 334.511719 303.222656 334.601562 303.105469 C 335.714844 301.664062 336.800781 300.210938 337.871094 298.738281 C 338.023438 298.527344 338.179688 298.3125 338.335938 298.101562 C 340.644531 294.894531 342.855469 291.613281 344.964844 288.261719 C 345.082031 288.074219 345.195312 287.886719 345.3125 287.699219 C 346.304688 286.109375 347.273438 284.507812 348.214844 282.886719 C 348.273438 282.789062 348.335938 282.691406 348.394531 282.589844 C 349.421875 280.816406 350.421875 279.027344 351.394531 277.21875 C 309.222656 266.402344 256.9375 259.996094 200.292969 259.996094 Z M 200.300781 259.996094 " fill-opacity="1" fill-rule="nonzero"/><path fill="#f04e3e" d="M 189.488281 43.734375 C 138.542969 43.734375 97.234375 85.054688 97.234375 136.03125 C 97.234375 187.003906 171.546875 318.066406 189.488281 318.066406 C 209.988281 318.066406 281.738281 187.007812 281.738281 136.03125 C 281.738281 85.050781 240.429688 43.734375 189.488281 43.734375 Z M 189.488281 180.894531 C 164.015625 180.894531 143.367188 160.234375 143.367188 134.746094 C 143.367188 109.257812 164.015625 88.601562 189.488281 88.601562 C 214.960938 88.601562 235.617188 109.261719 235.617188 134.746094 C 235.617188 160.234375 214.960938 180.894531 189.488281 180.894531 Z M 189.488281 180.894531 " fill-opacity="1" fill-rule="nonzero"/><path fill="#f15b47" d="M 235.625 134.746094 C 235.625 160.234375 214.96875 180.890625 189.492188 180.890625 L 189.492188 318.0625 C 209.996094 318.0625 281.746094 187.007812 281.746094 136.03125 C 281.746094 85.050781 240.4375 43.730469 189.492188 43.730469 L 189.492188 88.597656 C 214.96875 88.597656 235.625 109.257812 235.625 134.746094 Z M 235.625 134.746094 " fill-opacity="1" fill-rule="nonzero"/></svg>