<svg xmlns="http://www.w3.org/2000/svg" xmlns:xlink="http://www.w3.org/1999/xlink" width="500" zoomAndPan="magnify" viewBox="0 0 375 374.999991" height="500" preserveAspectRatio="xMidYMid meet" version="1.0"><path fill="#000000" d="M 128.183594 306.828125 C 129.488281 306.164062 130.84375 305.523438 132.226562 304.921875 C 137.226562 302.734375 139.503906 296.914062 137.316406 291.921875 C 135.125 286.929688 129.289062 284.667969 124.296875 286.839844 C 122.5625 287.601562 120.878906 288.394531 119.203125 289.246094 C 100.652344 298.738281 90.429688 311.402344 90.429688 324.917969 C 90.429688 338.5 100.652344 351.183594 119.21875 360.632812 C 137.4375 369.894531 161.679688 375 187.480469 375 C 213.285156 375 237.523438 369.894531 255.734375 360.632812 C 274.296875 351.179688 284.519531 338.496094 284.519531 324.917969 C 284.519531 311.410156 274.300781 298.742188 255.734375 289.238281 C 253.828125 288.265625 251.84375 287.339844 249.8125 286.464844 C 244.792969 284.316406 238.984375 286.621094 236.824219 291.621094 C 234.667969 296.628906 236.980469 302.4375 241.992188 304.585938 C 243.632812 305.296875 245.21875 306.039062 246.734375 306.804688 C 260.035156 313.613281 264.757812 320.8125 264.757812 324.914062 C 264.757812 329.050781 260.042969 336.285156 246.757812 343.046875 C 231.277344 350.929688 210.222656 355.261719 187.480469 355.261719 C 164.738281 355.261719 143.6875 350.929688 128.199219 343.046875 C 114.90625 336.289062 110.199219 329.054688 110.199219 324.914062 C 110.195312 320.816406 114.914062 313.617188 128.183594 306.828125 Z M 128.183594 306.828125 " fill-opacity="1" fill-rule="nonzero"/><path fill="#000000" d="M 188.785156 0.0351562 C 188.519531 0.0117188 188.25 0 187.980469 0 L 186.980469 0 C 186.710938 0 186.445312 0.0117188 186.183594 0.0351562 C 121.058594 0.992188 68.207031 54.484375 68.207031 119.433594 C 67.179688 184.054688 116.703125 243.191406 152.863281 286.367188 C 163.464844 299.027344 172.625 309.972656 178.824219 319.027344 C 180.660156 321.722656 183.71875 323.332031 186.988281 323.332031 L 187.984375 323.332031 C 191.25 323.332031 194.308594 321.722656 196.152344 319.027344 C 202.339844 309.964844 211.503906 299.027344 222.105469 286.363281 C 258.261719 243.1875 307.78125 184.046875 306.757812 119.589844 C 306.753906 54.488281 253.898438 1 188.785156 0.0351562 Z M 206.9375 273.703125 C 199.675781 282.378906 193.070312 290.265625 187.480469 297.472656 C 181.886719 290.265625 175.285156 282.378906 168.023438 273.707031 C 133.855469 232.902344 87.0625 177.019531 87.96875 119.589844 C 87.96875 65.035156 132.421875 20.25 187.070312 19.757812 C 187.207031 19.757812 187.339844 19.753906 187.480469 19.746094 C 187.617188 19.753906 187.75 19.757812 187.890625 19.757812 C 242.53125 20.25 286.988281 65.035156 286.988281 119.746094 C 287.898438 177.019531 241.109375 232.898438 206.9375 273.703125 Z M 206.9375 273.703125 " fill-opacity="1" fill-rule="nonzero"/><path fill="#000000" d="M 187.480469 75.992188 C 163.324219 76.253906 143.796875 95.671875 143.796875 119.609375 C 143.796875 143.546875 163.304688 162.957031 187.480469 163.222656 C 211.65625 162.957031 231.160156 143.546875 231.160156 119.609375 C 231.160156 95.671875 211.632812 76.253906 187.480469 75.992188 Z M 187.480469 75.992188 " fill-opacity="1" fill-rule="nonzero"/><path fill="#ffffff" d="M 128.085938 306.828125 C 129.390625 306.164062 130.746094 305.523438 132.125 304.921875 C 137.117188 302.734375 139.390625 296.914062 137.207031 291.921875 C 135.019531 286.929688 129.191406 284.667969 124.207031 286.839844 C 122.476562 287.601562 120.796875 288.394531 119.121094 289.246094 C 100.601562 298.738281 90.390625 311.402344 90.390625 324.917969 C 90.390625 338.5 100.601562 351.183594 119.136719 360.632812 C 137.328125 369.894531 161.535156 375 187.292969 375 C 213.058594 375 237.257812 369.894531 255.441406 360.632812 C 273.976562 351.179688 284.183594 338.496094 284.183594 324.917969 C 284.183594 311.410156 273.980469 298.742188 255.441406 289.238281 C 253.539062 288.265625 251.558594 287.339844 249.527344 286.464844 C 244.515625 284.316406 238.714844 286.621094 236.5625 291.621094 C 234.410156 296.628906 236.714844 302.4375 241.722656 304.585938 C 243.359375 305.296875 244.941406 306.039062 246.453125 306.804688 C 259.738281 313.613281 264.449219 320.8125 264.449219 324.914062 C 264.449219 329.050781 259.742188 336.285156 246.480469 343.046875 C 231.019531 350.929688 210 355.261719 187.292969 355.261719 C 164.585938 355.261719 143.566406 350.929688 128.105469 343.046875 C 114.832031 336.289062 110.132812 329.054688 110.132812 324.914062 C 110.128906 320.816406 114.835938 313.617188 128.085938 306.828125 Z M 128.085938 306.828125 " fill-opacity="1" fill-rule="nonzero"/><path fill="#ffffff" d="M 188.597656 0.0351562 C 188.328125 0.0117188 188.0625 0 187.792969 0 L 186.796875 0 C 186.523438 0 186.257812 0.0117188 186 0.0351562 C 120.976562 0.992188 68.203125 54.484375 68.203125 119.433594 C 67.179688 184.054688 116.625 243.191406 152.730469 286.367188 C 163.316406 299.027344 172.460938 309.972656 178.648438 319.027344 C 180.484375 321.722656 183.539062 323.332031 186.800781 323.332031 L 187.796875 323.332031 C 191.058594 323.332031 194.113281 321.722656 195.949219 319.027344 C 202.128906 309.964844 211.277344 299.027344 221.867188 286.363281 C 257.964844 243.1875 307.410156 184.046875 306.386719 119.589844 C 306.382812 54.488281 253.609375 1 188.597656 0.0351562 Z M 206.722656 273.703125 C 199.472656 282.378906 192.875 290.265625 187.292969 297.472656 C 181.707031 290.265625 175.117188 282.378906 167.867188 273.707031 C 133.75 232.902344 87.027344 177.019531 87.9375 119.589844 C 87.9375 65.035156 132.320312 20.25 186.882812 19.757812 C 187.019531 19.757812 187.152344 19.753906 187.292969 19.746094 C 187.429688 19.753906 187.5625 19.757812 187.703125 19.757812 C 242.257812 20.25 286.644531 65.035156 286.644531 119.746094 C 287.554688 177.019531 240.835938 232.898438 206.722656 273.703125 Z M 206.722656 273.703125 " fill-opacity="1" fill-rule="nonzero"/><path fill="#ffffff" d="M 187.292969 75.992188 C 163.175781 76.253906 143.679688 95.671875 143.679688 119.609375 C 143.679688 143.546875 163.152344 162.957031 187.292969 163.222656 C 211.433594 162.957031 230.902344 143.546875 230.902344 119.609375 C 230.902344 95.671875 211.410156 76.253906 187.292969 75.992188 Z M 187.292969 75.992188 " fill-opacity="1" fill-rule="nonzero"/></svg>