<svg xmlns="http://www.w3.org/2000/svg" xmlns:xlink="http://www.w3.org/1999/xlink" width="500" zoomAndPan="magnify" viewBox="0 0 375 374.999991" height="500" preserveAspectRatio="xMidYMid meet" version="1.0"><path stroke-linecap="round" transform="matrix(0.208333, 0, 0, 0.208333, -62.499997, -62.500001)" fill="none" stroke-linejoin="round" d="M 1599.993796 600.00003 L 1899.993807 600.00003 C 1926.525058 600.00003 1951.950059 610.53753 1970.718809 629.287531 C 1989.46881 648.037531 2000.006311 673.481282 2000.006311 699.993783 L 2000.006311 1800.000075 C 2000.006311 1853.043827 1978.91256 1903.912579 1941.412558 1941.41258 C 1903.912557 1978.931331 1853.043805 2000.006332 1800.000053 2000.006332 M 1800.000053 2000.006332 C 1746.956301 2000.006332 1696.087549 1978.931331 1658.568798 1941.41258 C 1621.068796 1903.912579 1599.993796 1853.043827 1599.993796 1800.000075 L 1599.993796 500.006276 C 1599.993796 473.475025 1589.456295 448.050024 1570.706294 429.281273 C 1551.956294 410.531273 1526.512543 399.993772 1500.000042 399.993772 L 499.987504 399.993772 C 473.475003 399.993772 448.031252 410.531273 429.281252 429.281273 C 410.531251 448.050024 399.993751 473.475025 399.993751 500.006276 L 399.993751 1700.006321 C 399.993751 1779.562574 431.606252 1855.875077 487.856254 1912.125079 C 544.125006 1968.393831 620.437509 2000.006332 699.993762 2000.006332 Z M 1800.000053 2000.006332 " stroke="#ffffff" stroke-width="200" stroke-opacity="1" stroke-miterlimit="4"/><path stroke-linecap="round" transform="matrix(0.208333, 0, 0, 0.208333, -62.499997, -62.500001)" fill="none" stroke-linejoin="round" d="M 799.987516 800.006287 L 1200.000031 800.006287 " stroke="#ffffff" stroke-width="200" stroke-opacity="1" stroke-miterlimit="4"/><path stroke-linecap="round" transform="matrix(0.208333, 0, 0, 0.208333, -62.499997, -62.500001)" fill="none" stroke-linejoin="round" d="M 799.987516 1200.000052 L 1200.000031 1200.000052 " stroke="#ffffff" stroke-width="200" stroke-opacity="1" stroke-miterlimit="4"/><path stroke-linecap="round" transform="matrix(0.208333, 0, 0, 0.208333, -62.499997, -62.500001)" fill="none" stroke-linejoin="round" d="M 799.987516 1599.993817 L 1200.000031 1599.993817 " stroke="#ffffff" stroke-width="200" stroke-opacity="1" stroke-miterlimit="4"/><path stroke-linecap="round" transform="matrix(0.208333, 0, 0, 0.208333, -62.499997, -62.500001)" fill="none" stroke-linejoin="round" d="M 1599.993796 600.00003 L 1899.993807 600.00003 C 1926.525058 600.00003 1951.950059 610.53753 1970.718809 629.287531 C 1989.46881 648.037531 2000.006311 673.481282 2000.006311 699.993783 L 2000.006311 1800.000075 C 2000.006311 1853.043827 1978.91256 1903.912579 1941.412558 1941.41258 C 1903.912557 1978.931331 1853.043805 2000.006332 1800.000053 2000.006332 M 1800.000053 2000.006332 C 1746.956301 2000.006332 1696.087549 1978.931331 1658.568798 1941.41258 C 1621.068796 1903.912579 1599.993796 1853.043827 1599.993796 1800.000075 L 1599.993796 500.006276 C 1599.993796 473.475025 1589.456295 448.050024 1570.706294 429.281273 C 1551.956294 410.531273 1526.512543 399.993772 1500.000042 399.993772 L 499.987504 399.993772 C 473.475003 399.993772 448.031252 410.531273 429.281252 429.281273 C 410.531251 448.050024 399.993751 473.475025 399.993751 500.006276 L 399.993751 1700.006321 C 399.993751 1779.562574 431.606252 1855.875077 487.856254 1912.125079 C 544.125006 1968.393831 620.437509 2000.006332 699.993762 2000.006332 Z M 1800.000053 2000.006332 " stroke="#ffffff" stroke-width="200" stroke-opacity="1" stroke-miterlimit="4"/><path stroke-linecap="round" transform="matrix(0.208333, 0, 0, 0.208333, -62.499997, -62.500001)" fill="none" stroke-linejoin="round" d="M 799.987516 800.006287 L 1200.000031 800.006287 " stroke="#ffffff" stroke-width="200" stroke-opacity="1" stroke-miterlimit="4"/><path stroke-linecap="round" transform="matrix(0.208333, 0, 0, 0.208333, -62.499997, -62.500001)" fill="none" stroke-linejoin="round" d="M 799.987516 1200.000052 L 1200.000031 1200.000052 " stroke="#ffffff" stroke-width="200" stroke-opacity="1" stroke-miterlimit="4"/><path stroke-linecap="round" transform="matrix(0.208333, 0, 0, 0.208333, -62.499997, -62.500001)" fill="none" stroke-linejoin="round" d="M 799.987516 1599.993817 L 1200.000031 1599.993817 " stroke="#ffffff" stroke-width="200" stroke-opacity="1" stroke-miterlimit="4"/></svg>