<svg xmlns="http://www.w3.org/2000/svg" xmlns:xlink="http://www.w3.org/1999/xlink" width="500" zoomAndPan="magnify" viewBox="0 0 375 374.999991" height="500" preserveAspectRatio="xMidYMid meet" version="1.0"><defs><clipPath id="4a7945dafa"><path d="M 12.800781 8.285156 L 363.527344 8.285156 L 363.527344 362 L 12.800781 362 Z M 12.800781 8.285156 " clip-rule="nonzero"/></clipPath><clipPath id="ac2f6ae1cc"><path d="M 188.164062 8.285156 C 91.3125 8.285156 12.800781 87.511719 12.800781 185.242188 C 12.800781 282.972656 91.3125 362.199219 188.164062 362.199219 C 285.015625 362.199219 363.527344 282.972656 363.527344 185.242188 C 363.527344 87.511719 285.015625 8.285156 188.164062 8.285156 Z M 188.164062 8.285156 " clip-rule="nonzero"/></clipPath><clipPath id="61c329a9e7"><path d="M 1 0 L 374.71875 0 L 374.71875 373 L 1 373 Z M 1 0 " clip-rule="nonzero"/></clipPath></defs><g clip-path="url(#4a7945dafa)"><g clip-path="url(#ac2f6ae1cc)"><path fill="#278d46" d="M 12.800781 8.285156 L 363.527344 8.285156 L 363.527344 361.753906 L 12.800781 361.753906 Z M 12.800781 8.285156 " fill-opacity="1" fill-rule="nonzero"/></g></g><g clip-path="url(#61c329a9e7)"><path fill="#ffffff" d="M 187.460938 -0.128906 C 83.546875 0.222656 0.496094 84.84375 1.851562 188.90625 C 1.914062 194.132812 2.195312 199.347656 2.695312 204.554688 C 3.199219 209.757812 3.917969 214.933594 4.855469 220.074219 C 5.792969 225.21875 6.945312 230.3125 8.3125 235.359375 C 9.679688 240.40625 11.257812 245.386719 13.042969 250.296875 C 14.832031 255.210938 16.820312 260.039062 19.015625 264.785156 C 21.210938 269.527344 23.601562 274.171875 26.1875 278.714844 C 28.773438 283.257812 31.542969 287.679688 34.503906 291.988281 C 37.460938 296.296875 40.597656 300.472656 43.910156 304.515625 C 44.429688 305.152344 44.898438 305.828125 45.316406 306.535156 C 45.738281 307.242188 46.101562 307.980469 46.410156 308.742188 C 46.722656 309.507812 46.972656 310.289062 47.164062 311.089844 C 47.359375 311.890625 47.492188 312.703125 47.5625 313.523438 C 47.632812 314.34375 47.644531 315.164062 47.59375 315.988281 C 47.542969 316.808594 47.429688 317.621094 47.257812 318.429688 C 47.085938 319.234375 46.855469 320.023438 46.5625 320.792969 C 46.273438 321.5625 45.925781 322.308594 45.527344 323.027344 L 29.480469 351.824219 C 25.03125 359.808594 32.28125 369.246094 41.125 366.992188 L 95.472656 353.132812 C 97.367188 352.652344 99.289062 352.511719 101.234375 352.710938 C 103.179688 352.910156 105.03125 353.4375 106.789062 354.296875 C 118.804688 360.144531 131.308594 364.636719 144.292969 367.777344 C 157.28125 370.914062 170.453125 372.628906 183.8125 372.917969 C 288.289062 375.28125 374.042969 291.671875 374.371094 187.011719 C 374.691406 83.5 290.828125 -0.476562 187.460938 -0.128906 Z M 188.105469 349.976562 C 185.429688 349.976562 182.761719 349.914062 180.089844 349.78125 C 177.421875 349.648438 174.757812 349.453125 172.097656 349.191406 C 169.4375 348.929688 166.785156 348.601562 164.140625 348.207031 C 161.496094 347.816406 158.863281 347.359375 156.242188 346.835938 C 153.621094 346.3125 151.015625 345.726562 148.421875 345.078125 C 145.828125 344.425781 143.253906 343.714844 140.695312 342.9375 C 138.136719 342.160156 135.601562 341.320312 133.085938 340.417969 C 130.566406 339.515625 128.074219 338.554688 125.605469 337.527344 C 123.136719 336.503906 120.695312 335.421875 118.277344 334.277344 C 115.863281 333.132812 113.476562 331.929688 111.117188 330.667969 C 108.761719 329.40625 106.4375 328.085938 104.144531 326.710938 C 101.851562 325.332031 99.59375 323.902344 97.371094 322.414062 C 95.148438 320.925781 92.964844 319.386719 90.816406 317.792969 C 88.671875 316.199219 86.5625 314.550781 84.496094 312.851562 C 82.433594 311.15625 80.410156 309.40625 78.429688 307.609375 C 76.449219 305.8125 74.511719 303.964844 72.621094 302.074219 C 70.734375 300.179688 68.890625 298.242188 67.09375 296.257812 C 65.300781 294.277344 63.554688 292.25 61.859375 290.179688 C 60.164062 288.113281 58.519531 286.003906 56.929688 283.851562 C 55.335938 281.703125 53.796875 279.515625 52.3125 277.289062 C 50.828125 275.0625 49.398438 272.800781 48.023438 270.507812 C 46.648438 268.210938 45.332031 265.882812 44.074219 263.519531 C 42.8125 261.160156 41.613281 258.769531 40.46875 256.351562 C 39.324219 253.929688 38.242188 251.484375 37.21875 249.011719 C 36.199219 246.539062 35.234375 244.039062 34.335938 241.519531 C 33.433594 239 32.597656 236.460938 31.820312 233.898438 C 31.046875 231.335938 30.332031 228.757812 29.683594 226.160156 C 29.035156 223.5625 28.449219 220.953125 27.925781 218.328125 C 27.40625 215.703125 26.949219 213.066406 26.554688 210.417969 C 26.164062 207.769531 25.835938 205.113281 25.574219 202.449219 C 25.3125 199.785156 25.117188 197.117188 24.984375 194.445312 C 24.855469 191.769531 24.789062 189.09375 24.789062 186.417969 C 24.789062 96.085938 97.910156 22.859375 188.105469 22.859375 C 277.949219 22.859375 350.851562 95.519531 351.414062 185.367188 C 351.984375 275.515625 278.121094 349.976562 188.105469 349.976562 Z M 188.105469 349.976562 " fill-opacity="1" fill-rule="nonzero"/></g><path fill="#ffffff" d="M 158.914062 106.898438 L 158.992188 107.050781 L 168.730469 126.398438 C 169.253906 127.4375 169.691406 128.515625 170.042969 129.625 C 170.394531 130.738281 170.652344 131.867188 170.820312 133.023438 C 170.988281 134.175781 171.0625 135.332031 171.042969 136.5 C 171.027344 137.664062 170.914062 138.820312 170.707031 139.96875 C 170.503906 141.113281 170.207031 142.238281 169.824219 143.335938 C 169.4375 144.4375 168.964844 145.496094 168.40625 146.519531 C 167.851562 147.542969 167.214844 148.515625 166.503906 149.4375 C 165.789062 150.355469 165.007812 151.214844 164.15625 152.007812 C 163.308594 152.796875 162.527344 153.648438 161.816406 154.558594 C 161.105469 155.472656 160.46875 156.4375 159.914062 157.453125 C 159.355469 158.46875 158.886719 159.523438 158.496094 160.613281 C 158.109375 161.707031 157.8125 162.820312 157.605469 163.960938 C 157.394531 165.101562 157.28125 166.25 157.253906 167.40625 C 157.230469 168.566406 157.300781 169.71875 157.460938 170.867188 C 157.621094 172.011719 157.875 173.140625 158.214844 174.246094 C 158.558594 175.355469 158.984375 176.425781 159.5 177.464844 C 165.347656 189.222656 175.476562 205.433594 190.9375 217.128906 C 191.796875 217.78125 192.703125 218.371094 193.652344 218.890625 C 194.601562 219.410156 195.585938 219.855469 196.601562 220.226562 C 197.617188 220.597656 198.652344 220.894531 199.714844 221.109375 C 200.773438 221.328125 201.84375 221.464844 202.921875 221.519531 C 204.003906 221.578125 205.082031 221.554688 206.160156 221.449219 C 207.234375 221.34375 208.296875 221.160156 209.347656 220.894531 C 210.394531 220.628906 211.417969 220.289062 212.417969 219.871094 C 213.414062 219.453125 214.378906 218.964844 215.300781 218.402344 L 221.574219 214.582031 C 222.980469 213.722656 224.46875 213.035156 226.03125 212.519531 C 227.59375 212 229.195312 211.664062 230.835938 211.515625 C 232.476562 211.363281 234.113281 211.398438 235.742188 211.621094 C 237.375 211.84375 238.960938 212.25 240.5 212.835938 L 265.433594 222.328125 C 266.097656 222.582031 266.746094 222.863281 267.378906 223.179688 C 268.011719 223.496094 268.628906 223.84375 269.230469 224.21875 C 269.832031 224.597656 270.410156 225 270.972656 225.4375 C 271.53125 225.871094 272.070312 226.328125 272.585938 226.816406 C 273.101562 227.304688 273.59375 227.8125 274.058594 228.347656 C 274.523438 228.882812 274.960938 229.441406 275.371094 230.019531 C 275.78125 230.597656 276.164062 231.195312 276.515625 231.808594 C 276.867188 232.425781 277.1875 233.054688 277.480469 233.703125 C 277.769531 234.351562 278.027344 235.011719 278.253906 235.683594 C 278.480469 236.355469 278.671875 237.039062 278.828125 237.730469 C 278.988281 238.421875 279.113281 239.121094 279.203125 239.824219 C 279.292969 240.527344 279.347656 241.234375 279.367188 241.941406 C 279.390625 242.652344 279.375 243.359375 279.328125 244.066406 C 279.277344 244.777344 279.195312 245.480469 279.078125 246.179688 C 278.960938 246.878906 278.808594 247.570312 278.621094 248.257812 C 278.4375 248.941406 278.21875 249.613281 277.964844 250.277344 C 277.675781 251.039062 277.34375 251.785156 276.96875 252.511719 L 270.058594 265.921875 C 269.5 267.007812 268.855469 268.039062 268.121094 269.011719 C 267.386719 269.988281 266.578125 270.894531 265.691406 271.734375 C 264.804688 272.570312 263.855469 273.328125 262.84375 274.007812 C 261.828125 274.683594 260.765625 275.273438 259.652344 275.769531 C 258.539062 276.269531 257.390625 276.667969 256.210938 276.972656 C 255.03125 277.277344 253.832031 277.476562 252.617188 277.578125 C 251.402344 277.679688 250.1875 277.679688 248.972656 277.574219 C 247.757812 277.46875 246.5625 277.261719 245.382812 276.957031 C 206.222656 266.808594 112.894531 231.539062 105.375 124.886719 C 105.300781 123.835938 105.300781 122.78125 105.378906 121.730469 C 105.460938 120.675781 105.613281 119.636719 105.84375 118.605469 C 106.078125 117.578125 106.382812 116.570312 106.757812 115.585938 C 107.136719 114.597656 107.582031 113.648438 108.101562 112.726562 C 108.617188 111.808594 109.199219 110.929688 109.84375 110.09375 C 110.488281 109.261719 111.1875 108.476562 111.949219 107.746094 C 112.707031 107.011719 113.515625 106.339844 114.371094 105.726562 C 115.230469 105.113281 116.125 104.5625 117.0625 104.082031 L 129.78125 97.539062 C 130.410156 97.214844 131.054688 96.921875 131.714844 96.660156 C 132.375 96.398438 133.042969 96.171875 133.726562 95.976562 C 134.40625 95.78125 135.09375 95.621094 135.792969 95.492188 C 136.488281 95.363281 137.191406 95.273438 137.898438 95.214844 C 138.601562 95.15625 139.3125 95.132812 140.019531 95.144531 C 140.726562 95.15625 141.433594 95.199219 142.136719 95.28125 C 142.84375 95.363281 143.539062 95.476562 144.234375 95.625 C 144.925781 95.777344 145.609375 95.960938 146.285156 96.175781 C 146.957031 96.394531 147.621094 96.640625 148.273438 96.925781 C 148.921875 97.207031 149.558594 97.519531 150.175781 97.863281 C 150.796875 98.207031 151.398438 98.582031 151.980469 98.984375 C 152.5625 99.390625 153.125 99.820312 153.664062 100.28125 C 154.207031 100.738281 154.722656 101.222656 155.214844 101.734375 C 155.707031 102.242188 156.175781 102.777344 156.617188 103.332031 C 157.054688 103.886719 157.46875 104.464844 157.851562 105.058594 C 158.238281 105.65625 158.589844 106.269531 158.914062 106.898438 Z M 158.914062 106.898438 " fill-opacity="1" fill-rule="nonzero"/></svg>