<svg xmlns="http://www.w3.org/2000/svg" xmlns:xlink="http://www.w3.org/1999/xlink" width="500" zoomAndPan="magnify" viewBox="0 0 375 374.999991" height="500" preserveAspectRatio="xMidYMid meet" version="1.0"><defs><clipPath id="744fd192fa"><path d="M 6.640625 6.640625 L 368.359375 6.640625 L 368.359375 368.359375 L 6.640625 368.359375 Z M 6.640625 6.640625 " clip-rule="nonzero"/></clipPath><clipPath id="0a076d9f73"><path d="M 187.5 6.640625 C 87.613281 6.640625 6.640625 87.613281 6.640625 187.5 C 6.640625 287.386719 87.613281 368.359375 187.5 368.359375 C 287.386719 368.359375 368.359375 287.386719 368.359375 187.5 C 368.359375 87.613281 287.386719 6.640625 187.5 6.640625 Z M 187.5 6.640625 " clip-rule="nonzero"/></clipPath></defs><g clip-path="url(#744fd192fa)"><g clip-path="url(#0a076d9f73)"><path fill="#d6030d" d="M 6.640625 6.640625 L 368.359375 6.640625 L 368.359375 368.359375 L 6.640625 368.359375 Z M 6.640625 6.640625 " fill-opacity="1" fill-rule="nonzero"/></g></g><path fill="#ffffff" d="M 187.367188 -0.128906 C 83.246094 0.222656 0.0273438 84.886719 1.386719 189 C 1.449219 194.230469 1.730469 199.449219 2.234375 204.65625 C 2.734375 209.863281 3.457031 215.039062 4.394531 220.1875 C 5.335938 225.332031 6.492188 230.429688 7.859375 235.476562 C 9.230469 240.527344 10.8125 245.507812 12.601562 250.421875 C 14.390625 255.339844 16.386719 260.171875 18.585938 264.917969 C 20.785156 269.664062 23.179688 274.308594 25.769531 278.855469 C 28.359375 283.398438 31.140625 287.824219 34.105469 292.136719 C 37.070312 296.445312 40.210938 300.621094 43.527344 304.667969 C 44.046875 305.304688 44.519531 305.980469 44.941406 306.6875 C 45.359375 307.398438 45.726562 308.132812 46.035156 308.898438 C 46.347656 309.660156 46.597656 310.445312 46.792969 311.246094 C 46.984375 312.046875 47.117188 312.859375 47.1875 313.679688 C 47.261719 314.5 47.269531 315.320312 47.21875 316.144531 C 47.167969 316.96875 47.054688 317.78125 46.882812 318.585938 C 46.710938 319.394531 46.476562 320.183594 46.1875 320.953125 C 45.898438 321.722656 45.550781 322.46875 45.148438 323.1875 L 29.070312 352 C 24.613281 359.988281 31.875 369.433594 40.738281 367.175781 L 95.195312 353.3125 C 97.09375 352.828125 99.015625 352.6875 100.964844 352.886719 C 102.914062 353.085938 104.769531 353.617188 106.53125 354.472656 C 118.574219 360.324219 131.101562 364.820312 144.113281 367.960938 C 157.128906 371.101562 170.324219 372.816406 183.710938 373.101562 C 288.394531 375.46875 374.324219 291.820312 374.648438 187.105469 C 374.972656 83.542969 290.941406 -0.476562 187.367188 -0.128906 Z M 188.011719 350.152344 C 185.332031 350.152344 182.65625 350.085938 179.980469 349.957031 C 177.308594 349.824219 174.636719 349.628906 171.972656 349.367188 C 169.304688 349.101562 166.648438 348.773438 164 348.382812 C 161.351562 347.988281 158.714844 347.53125 156.085938 347.007812 C 153.460938 346.488281 150.847656 345.898438 148.25 345.25 C 145.652344 344.597656 143.070312 343.886719 140.507812 343.109375 C 137.945312 342.332031 135.402344 341.492188 132.882812 340.589844 C 130.359375 339.6875 127.863281 338.722656 125.386719 337.699219 C 122.914062 336.671875 120.464844 335.585938 118.046875 334.441406 C 115.625 333.296875 113.234375 332.09375 110.871094 330.832031 C 108.507812 329.570312 106.179688 328.25 103.882812 326.871094 C 101.585938 325.496094 99.324219 324.0625 97.097656 322.574219 C 94.871094 321.085938 92.679688 319.546875 90.53125 317.949219 C 88.378906 316.355469 86.269531 314.707031 84.199219 313.007812 C 82.128906 311.308594 80.101562 309.5625 78.117188 307.761719 C 76.132812 305.964844 74.191406 304.117188 72.300781 302.226562 C 70.40625 300.332031 68.558594 298.390625 66.761719 296.40625 C 64.960938 294.421875 63.214844 292.394531 61.515625 290.324219 C 59.816406 288.253906 58.167969 286.144531 56.574219 283.992188 C 54.976562 281.84375 53.4375 279.652344 51.949219 277.425781 C 50.460938 275.199219 49.027344 272.9375 47.652344 270.640625 C 46.273438 268.34375 44.953125 266.015625 43.691406 263.652344 C 42.429688 261.289062 41.226562 258.898438 40.082031 256.476562 C 38.9375 254.058594 37.851562 251.609375 36.824219 249.136719 C 35.800781 246.660156 34.835938 244.164062 33.933594 241.640625 C 33.03125 239.121094 32.191406 236.578125 31.414062 234.015625 C 30.636719 231.453125 29.925781 228.871094 29.273438 226.273438 C 28.621094 223.675781 28.035156 221.0625 27.511719 218.4375 C 26.992188 215.808594 26.535156 213.171875 26.140625 210.523438 C 25.746094 207.875 25.417969 205.214844 25.15625 202.550781 C 24.894531 199.886719 24.699219 197.214844 24.566406 194.542969 C 24.433594 191.867188 24.371094 189.191406 24.371094 186.511719 C 24.371094 96.136719 97.636719 22.871094 188.011719 22.871094 C 278.039062 22.871094 351.082031 95.566406 351.648438 185.460938 C 352.21875 275.65625 278.210938 350.152344 188.011719 350.152344 Z M 188.011719 350.152344 " fill-opacity="1" fill-rule="nonzero"/><path fill="#1ba553" d="M 351.652344 186.511719 C 351.652344 189.1875 351.585938 191.867188 351.457031 194.539062 C 351.324219 197.214844 351.128906 199.886719 350.863281 202.550781 C 350.601562 205.214844 350.273438 207.875 349.882812 210.523438 C 349.488281 213.171875 349.03125 215.808594 348.507812 218.4375 C 347.984375 221.0625 347.398438 223.675781 346.75 226.273438 C 346.097656 228.871094 345.382812 231.453125 344.605469 234.015625 C 343.828125 236.578125 342.988281 239.117188 342.085938 241.640625 C 341.183594 244.160156 340.222656 246.660156 339.195312 249.132812 C 338.171875 251.609375 337.085938 254.054688 335.941406 256.476562 C 334.796875 258.898438 333.59375 261.289062 332.332031 263.652344 C 331.066406 266.011719 329.75 268.34375 328.371094 270.640625 C 326.996094 272.9375 325.5625 275.199219 324.074219 277.425781 C 322.585938 279.652344 321.042969 281.839844 319.449219 283.992188 C 317.855469 286.144531 316.207031 288.253906 314.507812 290.324219 C 312.808594 292.394531 311.058594 294.421875 309.261719 296.40625 C 307.464844 298.390625 305.617188 300.328125 303.722656 302.222656 C 301.828125 304.117188 299.890625 305.964844 297.90625 307.761719 C 295.921875 309.558594 293.894531 311.308594 291.824219 313.007812 C 289.753906 314.707031 287.644531 316.355469 285.492188 317.949219 C 283.339844 319.546875 281.152344 321.085938 278.925781 322.574219 C 276.699219 324.0625 274.4375 325.496094 272.140625 326.871094 C 269.84375 328.25 267.511719 329.566406 265.152344 330.832031 C 262.789062 332.09375 260.398438 333.296875 257.976562 334.441406 C 255.554688 335.585938 253.109375 336.671875 250.632812 337.695312 C 248.160156 338.722656 245.660156 339.683594 243.140625 340.585938 C 240.617188 341.488281 238.078125 342.328125 235.515625 343.105469 C 232.949219 343.882812 230.371094 344.597656 227.773438 345.25 C 225.175781 345.898438 222.5625 346.484375 219.9375 347.007812 C 217.308594 347.53125 214.671875 347.988281 212.023438 348.382812 C 209.375 348.773438 206.714844 349.101562 204.050781 349.363281 C 201.386719 349.628906 198.714844 349.824219 196.039062 349.957031 C 193.367188 350.085938 190.6875 350.152344 188.011719 350.152344 C 185.332031 350.152344 182.65625 350.085938 179.980469 349.957031 C 177.304688 349.824219 174.636719 349.628906 171.972656 349.363281 C 169.304688 349.101562 166.648438 348.773438 164 348.382812 C 161.351562 347.988281 158.710938 347.53125 156.085938 347.007812 C 153.460938 346.484375 150.847656 345.898438 148.25 345.25 C 145.652344 344.597656 143.070312 343.882812 140.507812 343.105469 C 137.945312 342.328125 135.402344 341.488281 132.882812 340.585938 C 130.359375 339.683594 127.863281 338.722656 125.386719 337.695312 C 122.914062 336.671875 120.464844 335.585938 118.046875 334.441406 C 115.625 333.296875 113.234375 332.09375 110.871094 330.832031 C 108.507812 329.566406 106.179688 328.25 103.882812 326.871094 C 101.585938 325.496094 99.324219 324.0625 97.097656 322.574219 C 94.871094 321.085938 92.679688 319.546875 90.53125 317.949219 C 88.378906 316.355469 86.269531 314.707031 84.199219 313.007812 C 82.128906 311.308594 80.101562 309.558594 78.117188 307.761719 C 76.132812 305.964844 74.191406 304.117188 72.296875 302.222656 C 70.40625 300.328125 68.558594 298.390625 66.761719 296.40625 C 64.960938 294.421875 63.214844 292.394531 61.515625 290.324219 C 59.816406 288.253906 58.167969 286.144531 56.574219 283.992188 C 54.976562 281.839844 53.4375 279.652344 51.949219 277.425781 C 50.460938 275.199219 49.027344 272.9375 47.652344 270.640625 C 46.273438 268.34375 44.953125 266.011719 43.691406 263.652344 C 42.429688 261.289062 41.226562 258.898438 40.082031 256.476562 C 38.933594 254.054688 37.851562 251.609375 36.824219 249.132812 C 35.800781 246.660156 34.835938 244.160156 33.933594 241.640625 C 33.03125 239.117188 32.191406 236.578125 31.414062 234.015625 C 30.636719 231.453125 29.925781 228.871094 29.273438 226.273438 C 28.621094 223.675781 28.035156 221.0625 27.511719 218.4375 C 26.992188 215.808594 26.535156 213.171875 26.140625 210.523438 C 25.746094 207.875 25.417969 205.214844 25.15625 202.550781 C 24.894531 199.886719 24.699219 197.214844 24.566406 194.539062 C 24.433594 191.867188 24.371094 189.1875 24.371094 186.511719 C 24.371094 183.832031 24.433594 181.15625 24.566406 178.480469 C 24.699219 175.808594 24.894531 173.136719 25.15625 170.472656 C 25.417969 167.804688 25.746094 165.148438 26.140625 162.5 C 26.535156 159.851562 26.992188 157.214844 27.511719 154.585938 C 28.035156 151.960938 28.621094 149.347656 29.273438 146.75 C 29.925781 144.152344 30.636719 141.570312 31.414062 139.007812 C 32.191406 136.445312 33.03125 133.902344 33.933594 131.382812 C 34.835938 128.859375 35.800781 126.363281 36.824219 123.886719 C 37.851562 121.414062 38.933594 118.964844 40.082031 116.546875 C 41.226562 114.125 42.429688 111.734375 43.691406 109.371094 C 44.953125 107.007812 46.273438 104.679688 47.652344 102.382812 C 49.027344 100.085938 50.460938 97.824219 51.949219 95.597656 C 53.4375 93.371094 54.976562 91.179688 56.574219 89.03125 C 58.167969 86.878906 59.816406 84.769531 61.515625 82.699219 C 63.214844 80.628906 64.960938 78.601562 66.761719 76.617188 C 68.558594 74.632812 70.40625 72.691406 72.296875 70.800781 C 74.191406 68.90625 76.132812 67.058594 78.117188 65.261719 C 80.101562 63.460938 82.128906 61.714844 84.199219 60.015625 C 86.269531 58.316406 88.378906 56.667969 90.53125 55.074219 C 92.679688 53.476562 94.871094 51.9375 97.097656 50.449219 C 99.324219 48.960938 101.585938 47.527344 103.882812 46.152344 C 106.179688 44.773438 108.507812 43.453125 110.871094 42.191406 C 113.234375 40.929688 115.625 39.726562 118.046875 38.582031 C 120.464844 37.4375 122.914062 36.351562 125.386719 35.324219 C 127.863281 34.300781 130.359375 33.335938 132.882812 32.433594 C 135.402344 31.53125 137.945312 30.691406 140.507812 29.914062 C 143.070312 29.136719 145.652344 28.425781 148.25 27.773438 C 150.847656 27.121094 153.460938 26.535156 156.085938 26.015625 C 158.710938 25.492188 161.351562 25.035156 164 24.640625 C 166.648438 24.246094 169.304688 23.917969 171.972656 23.65625 C 174.636719 23.394531 177.304688 23.199219 179.980469 23.066406 C 182.65625 22.933594 185.332031 22.871094 188.011719 22.871094 C 190.6875 22.871094 193.367188 22.933594 196.039062 23.066406 C 198.714844 23.199219 201.386719 23.394531 204.050781 23.65625 C 206.714844 23.917969 209.375 24.246094 212.023438 24.640625 C 214.671875 25.035156 217.308594 25.492188 219.9375 26.015625 C 222.5625 26.535156 225.175781 27.121094 227.773438 27.773438 C 230.371094 28.425781 232.949219 29.136719 235.515625 29.914062 C 238.078125 30.691406 240.617188 31.53125 243.140625 32.433594 C 245.660156 33.335938 248.160156 34.300781 250.632812 35.324219 C 253.109375 36.351562 255.554688 37.4375 257.976562 38.582031 C 260.398438 39.726562 262.789062 40.929688 265.152344 42.191406 C 267.511719 43.453125 269.84375 44.773438 272.140625 46.152344 C 274.4375 47.527344 276.699219 48.960938 278.925781 50.449219 C 281.152344 51.9375 283.339844 53.476562 285.492188 55.074219 C 287.644531 56.667969 289.753906 58.316406 291.824219 60.015625 C 293.894531 61.714844 295.921875 63.460938 297.90625 65.261719 C 299.890625 67.058594 301.828125 68.90625 303.722656 70.800781 C 305.617188 72.691406 307.464844 74.632812 309.261719 76.617188 C 311.058594 78.601562 312.808594 80.628906 314.507812 82.699219 C 316.207031 84.769531 317.855469 86.878906 319.449219 89.03125 C 321.042969 91.179688 322.585938 93.371094 324.074219 95.597656 C 325.5625 97.824219 326.996094 100.085938 328.371094 102.382812 C 329.75 104.679688 331.066406 107.007812 332.332031 109.371094 C 333.59375 111.734375 334.796875 114.125 335.941406 116.546875 C 337.085938 118.964844 338.171875 121.414062 339.195312 123.886719 C 340.222656 126.363281 341.183594 128.859375 342.085938 131.382812 C 342.988281 133.902344 343.828125 136.445312 344.605469 139.007812 C 345.382812 141.570312 346.097656 144.152344 346.75 146.75 C 347.398438 149.347656 347.984375 151.960938 348.507812 154.585938 C 349.03125 157.214844 349.488281 159.851562 349.882812 162.5 C 350.273438 165.148438 350.601562 167.804688 350.863281 170.472656 C 351.128906 173.136719 351.324219 175.808594 351.457031 178.480469 C 351.585938 181.15625 351.652344 183.832031 351.652344 186.511719 Z M 351.652344 186.511719 " fill-opacity="1" fill-rule="nonzero"/><path fill="#ffffff" d="M 158.765625 106.953125 L 158.839844 107.105469 L 168.597656 126.460938 C 169.125 127.503906 169.5625 128.578125 169.914062 129.691406 C 170.265625 130.800781 170.523438 131.933594 170.691406 133.089844 C 170.859375 134.242188 170.9375 135.402344 170.917969 136.566406 C 170.898438 137.734375 170.785156 138.890625 170.582031 140.039062 C 170.375 141.183594 170.078125 142.308594 169.691406 143.410156 C 169.304688 144.507812 168.832031 145.570312 168.277344 146.59375 C 167.71875 147.617188 167.082031 148.589844 166.367188 149.511719 C 165.652344 150.433594 164.867188 151.289062 164.015625 152.085938 C 163.164062 152.871094 162.382812 153.722656 161.671875 154.636719 C 160.957031 155.550781 160.324219 156.515625 159.765625 157.53125 C 159.207031 158.550781 158.734375 159.601562 158.347656 160.695312 C 157.957031 161.789062 157.660156 162.902344 157.449219 164.042969 C 157.242188 165.183594 157.125 166.332031 157.101562 167.492188 C 157.078125 168.652344 157.144531 169.804688 157.308594 170.953125 C 157.46875 172.097656 157.71875 173.226562 158.0625 174.335938 C 158.40625 175.441406 158.832031 176.515625 159.347656 177.550781 C 165.207031 189.316406 175.359375 205.535156 190.847656 217.234375 C 191.710938 217.890625 192.621094 218.480469 193.570312 219 C 194.523438 219.519531 195.507812 219.964844 196.523438 220.335938 C 197.542969 220.710938 198.582031 221.003906 199.644531 221.222656 C 200.707031 221.4375 201.777344 221.574219 202.859375 221.632812 C 203.941406 221.6875 205.023438 221.664062 206.101562 221.558594 C 207.179688 221.453125 208.246094 221.269531 209.296875 221.003906 C 210.347656 220.742188 211.375 220.398438 212.375 219.980469 C 213.375 219.5625 214.335938 219.074219 215.265625 218.511719 L 221.550781 214.6875 C 222.960938 213.832031 224.445312 213.140625 226.015625 212.625 C 227.582031 212.105469 229.1875 211.773438 230.828125 211.621094 C 232.472656 211.46875 234.109375 211.503906 235.746094 211.726562 C 237.378906 211.949219 238.96875 212.355469 240.511719 212.941406 L 265.496094 222.441406 C 266.160156 222.691406 266.808594 222.976562 267.445312 223.292969 C 268.078125 223.609375 268.699219 223.957031 269.300781 224.332031 C 269.902344 224.707031 270.484375 225.113281 271.046875 225.546875 C 271.605469 225.980469 272.144531 226.441406 272.664062 226.929688 C 273.179688 227.417969 273.671875 227.929688 274.136719 228.464844 C 274.601562 229 275.042969 229.554688 275.453125 230.132812 C 275.863281 230.710938 276.246094 231.308594 276.601562 231.925781 C 276.953125 232.542969 277.273438 233.171875 277.566406 233.820312 C 277.855469 234.46875 278.113281 235.128906 278.339844 235.800781 C 278.566406 236.472656 278.757812 237.15625 278.917969 237.847656 C 279.078125 238.539062 279.203125 239.238281 279.292969 239.941406 C 279.382812 240.648438 279.4375 241.355469 279.457031 242.0625 C 279.480469 242.773438 279.464844 243.480469 279.417969 244.191406 C 279.367188 244.898438 279.285156 245.601562 279.167969 246.300781 C 279.046875 247.003906 278.898438 247.695312 278.710938 248.378906 C 278.523438 249.066406 278.304688 249.738281 278.054688 250.402344 C 277.761719 251.167969 277.429688 251.910156 277.054688 252.636719 L 270.132812 266.054688 C 269.570312 267.140625 268.921875 268.171875 268.1875 269.148438 C 267.453125 270.125 266.644531 271.03125 265.753906 271.871094 C 264.867188 272.707031 263.914062 273.464844 262.898438 274.144531 C 261.882812 274.820312 260.816406 275.410156 259.703125 275.90625 C 258.585938 276.40625 257.4375 276.808594 256.253906 277.109375 C 255.070312 277.414062 253.871094 277.617188 252.652344 277.71875 C 251.4375 277.820312 250.21875 277.816406 249.003906 277.710938 C 247.785156 277.605469 246.585938 277.402344 245.402344 277.09375 C 206.164062 266.941406 112.648438 231.65625 105.117188 124.949219 C 105.039062 123.898438 105.042969 122.84375 105.121094 121.789062 C 105.203125 120.738281 105.355469 119.695312 105.589844 118.667969 C 105.820312 117.636719 106.125 116.628906 106.503906 115.640625 C 106.882812 114.65625 107.328125 113.703125 107.847656 112.785156 C 108.367188 111.863281 108.949219 110.984375 109.59375 110.152344 C 110.238281 109.316406 110.941406 108.53125 111.703125 107.800781 C 112.464844 107.066406 113.273438 106.394531 114.132812 105.777344 C 114.992188 105.164062 115.890625 104.617188 116.828125 104.132812 L 129.570312 97.585938 C 130.203125 97.261719 130.847656 96.96875 131.507812 96.707031 C 132.167969 96.449219 132.839844 96.21875 133.523438 96.023438 C 134.207031 95.828125 134.894531 95.667969 135.59375 95.539062 C 136.292969 95.414062 136.996094 95.320312 137.703125 95.261719 C 138.410156 95.203125 139.121094 95.179688 139.832031 95.191406 C 140.539062 95.203125 141.246094 95.25 141.953125 95.328125 C 142.660156 95.410156 143.359375 95.523438 144.050781 95.675781 C 144.746094 95.824219 145.433594 96.007812 146.109375 96.222656 C 146.785156 96.441406 147.449219 96.691406 148.097656 96.972656 C 148.75 97.253906 149.386719 97.570312 150.007812 97.914062 C 150.628906 98.257812 151.230469 98.632812 151.816406 99.035156 C 152.398438 99.441406 152.960938 99.871094 153.503906 100.332031 C 154.042969 100.789062 154.5625 101.273438 155.054688 101.785156 C 155.550781 102.292969 156.019531 102.828125 156.460938 103.382812 C 156.902344 103.9375 157.316406 104.515625 157.699219 105.113281 C 158.085938 105.707031 158.4375 106.324219 158.765625 106.953125 Z M 158.765625 106.953125 " fill-opacity="1" fill-rule="nonzero"/></svg>