<svg xmlns="http://www.w3.org/2000/svg" xmlns:xlink="http://www.w3.org/1999/xlink" width="500" zoomAndPan="magnify" viewBox="0 0 375 374.999991" height="500" preserveAspectRatio="xMidYMid meet" version="1.0"><defs><clipPath id="e2650622cb"><path d="M 1 0 L 374.71875 0 L 374.71875 374 L 1 374 Z M 1 0 " clip-rule="nonzero"/></clipPath><clipPath id="9fe486265b"><path d="M 1 0 L 374.71875 0 L 374.71875 373 L 1 373 Z M 1 0 " clip-rule="nonzero"/></clipPath></defs><g clip-path="url(#e2650622cb)"><path fill="#090504" d="M 187.601562 0.34375 C 83.609375 0.691406 0.496094 85.25 1.855469 189.234375 C 1.914062 194.457031 2.195312 199.667969 2.699219 204.871094 C 3.199219 210.070312 3.921875 215.242188 4.859375 220.378906 C 5.796875 225.519531 6.949219 230.613281 8.320312 235.652344 C 9.6875 240.695312 11.265625 245.671875 13.054688 250.582031 C 14.84375 255.488281 16.835938 260.316406 19.03125 265.054688 C 21.226562 269.796875 23.617188 274.4375 26.207031 278.976562 C 28.792969 283.515625 31.566406 287.9375 34.527344 292.242188 C 37.492188 296.542969 40.628906 300.71875 43.941406 304.757812 C 44.460938 305.394531 44.933594 306.066406 45.351562 306.777344 C 45.773438 307.484375 46.136719 308.21875 46.445312 308.980469 C 46.757812 309.746094 47.007812 310.527344 47.199219 311.328125 C 47.394531 312.125 47.527344 312.9375 47.597656 313.757812 C 47.667969 314.578125 47.679688 315.398438 47.628906 316.21875 C 47.578125 317.042969 47.464844 317.855469 47.292969 318.660156 C 47.121094 319.464844 46.890625 320.253906 46.597656 321.023438 C 46.308594 321.792969 45.960938 322.535156 45.558594 323.253906 L 29.503906 352.03125 C 25.050781 360.007812 32.304688 369.441406 41.15625 367.1875 L 95.542969 353.339844 C 97.441406 352.859375 99.363281 352.714844 101.308594 352.917969 C 103.253906 353.117188 105.109375 353.644531 106.867188 354.5 C 118.894531 360.34375 131.40625 364.832031 144.402344 367.96875 C 157.398438 371.109375 170.582031 372.820312 183.949219 373.105469 C 288.503906 375.472656 374.324219 291.925781 374.652344 187.34375 C 374.972656 83.90625 291.046875 -0.0078125 187.601562 0.34375 Z M 188.246094 350.1875 C 185.570312 350.1875 182.898438 350.121094 180.226562 349.988281 C 177.554688 349.859375 174.886719 349.660156 172.226562 349.398438 C 169.5625 349.136719 166.910156 348.808594 164.261719 348.417969 C 161.617188 348.023438 158.984375 347.566406 156.359375 347.046875 C 153.738281 346.523438 151.128906 345.9375 148.53125 345.289062 C 145.9375 344.636719 143.359375 343.925781 140.800781 343.148438 C 138.242188 342.371094 135.703125 341.535156 133.183594 340.632812 C 130.667969 339.730469 128.171875 338.769531 125.699219 337.746094 C 123.230469 336.722656 120.785156 335.640625 118.367188 334.496094 C 115.949219 333.351562 113.558594 332.148438 111.199219 330.886719 C 108.84375 329.628906 106.515625 328.308594 104.222656 326.933594 C 101.925781 325.558594 99.667969 324.128906 97.445312 322.644531 C 95.21875 321.15625 93.035156 319.617188 90.886719 318.023438 C 88.738281 316.429688 86.628906 314.785156 84.5625 313.089844 C 82.492188 311.390625 80.46875 309.644531 78.488281 307.847656 C 76.503906 306.050781 74.570312 304.207031 72.675781 302.316406 C 70.785156 300.425781 68.941406 298.488281 67.144531 296.507812 C 65.347656 294.527344 63.601562 292.5 61.90625 290.433594 C 60.207031 288.367188 58.5625 286.257812 56.96875 284.109375 C 55.378906 281.960938 53.835938 279.773438 52.351562 277.550781 C 50.867188 275.328125 49.433594 273.066406 48.058594 270.773438 C 46.683594 268.480469 45.367188 266.152344 44.105469 263.792969 C 42.84375 261.433594 41.640625 259.046875 40.5 256.628906 C 39.355469 254.210938 38.273438 251.765625 37.246094 249.292969 C 36.222656 246.824219 35.261719 244.328125 34.359375 241.808594 C 33.460938 239.289062 32.621094 236.75 31.84375 234.191406 C 31.066406 231.632812 30.355469 229.054688 29.703125 226.460938 C 29.054688 223.867188 28.46875 221.257812 27.949219 218.632812 C 27.425781 216.011719 26.96875 213.375 26.574219 210.730469 C 26.183594 208.085938 25.855469 205.429688 25.59375 202.769531 C 25.332031 200.105469 25.136719 197.441406 25.003906 194.769531 C 24.871094 192.097656 24.808594 189.421875 24.808594 186.75 C 24.808594 96.484375 97.980469 23.308594 188.246094 23.308594 C 278.160156 23.308594 351.113281 95.917969 351.679688 185.699219 C 352.246094 275.78125 278.332031 350.1875 188.246094 350.1875 Z M 188.246094 350.1875 " fill-opacity="1" fill-rule="nonzero"/></g><path fill="#090504" d="M 159.035156 107.289062 L 159.109375 107.441406 L 168.859375 126.773438 C 169.382812 127.8125 169.820312 128.886719 170.167969 129.996094 C 170.519531 131.109375 170.78125 132.238281 170.949219 133.390625 C 171.117188 134.542969 171.191406 135.703125 171.171875 136.867188 C 171.152344 138.03125 171.042969 139.1875 170.835938 140.332031 C 170.632812 141.476562 170.335938 142.601562 169.949219 143.699219 C 169.5625 144.796875 169.089844 145.859375 168.535156 146.878906 C 167.976562 147.902344 167.339844 148.875 166.628906 149.792969 C 165.914062 150.714844 165.128906 151.570312 164.277344 152.363281 C 163.429688 153.152344 162.648438 154 161.9375 154.914062 C 161.226562 155.828125 160.589844 156.789062 160.035156 157.804688 C 159.476562 158.820312 159.003906 159.875 158.617188 160.964844 C 158.230469 162.054688 157.929688 163.167969 157.722656 164.308594 C 157.511719 165.445312 157.398438 166.59375 157.375 167.753906 C 157.347656 168.910156 157.417969 170.0625 157.578125 171.207031 C 157.738281 172.355469 157.992188 173.480469 158.332031 174.585938 C 158.675781 175.691406 159.105469 176.761719 159.617188 177.800781 C 165.46875 189.550781 175.609375 205.746094 191.078125 217.433594 C 191.941406 218.089844 192.847656 218.675781 193.796875 219.195312 C 194.746094 219.714844 195.730469 220.160156 196.746094 220.53125 C 197.765625 220.902344 198.800781 221.199219 199.863281 221.414062 C 200.921875 221.632812 201.996094 221.769531 203.074219 221.824219 C 204.15625 221.882812 205.234375 221.855469 206.3125 221.753906 C 207.390625 221.648438 208.453125 221.460938 209.503906 221.199219 C 210.554688 220.933594 211.578125 220.59375 212.578125 220.175781 C 213.574219 219.761719 214.539062 219.269531 215.464844 218.710938 L 221.742188 214.890625 C 223.148438 214.03125 224.636719 213.347656 226.199219 212.828125 C 227.765625 212.3125 229.367188 211.976562 231.007812 211.824219 C 232.648438 211.675781 234.289062 211.710938 235.921875 211.933594 C 237.554688 212.15625 239.140625 212.558594 240.679688 213.144531 L 265.632812 222.632812 C 266.296875 222.882812 266.945312 223.167969 267.578125 223.484375 C 268.214844 223.800781 268.832031 224.144531 269.433594 224.523438 C 270.035156 224.898438 270.613281 225.304688 271.175781 225.738281 C 271.738281 226.171875 272.273438 226.628906 272.789062 227.117188 C 273.304688 227.601562 273.796875 228.113281 274.261719 228.648438 C 274.730469 229.183594 275.167969 229.738281 275.578125 230.316406 C 275.988281 230.894531 276.371094 231.492188 276.722656 232.105469 C 277.074219 232.722656 277.398438 233.351562 277.6875 234 C 277.976562 234.644531 278.234375 235.304688 278.460938 235.976562 C 278.6875 236.648438 278.878906 237.332031 279.039062 238.023438 C 279.195312 238.710938 279.320312 239.410156 279.410156 240.113281 C 279.503906 240.816406 279.558594 241.523438 279.578125 242.230469 C 279.597656 242.941406 279.585938 243.648438 279.535156 244.355469 C 279.488281 245.0625 279.40625 245.765625 279.285156 246.464844 C 279.167969 247.164062 279.015625 247.855469 278.832031 248.539062 C 278.644531 249.222656 278.425781 249.898438 278.175781 250.558594 C 277.882812 251.320312 277.550781 252.066406 277.175781 252.792969 L 270.261719 266.195312 C 269.703125 267.277344 269.054688 268.304688 268.324219 269.28125 C 267.589844 270.253906 266.777344 271.160156 265.890625 272 C 265.003906 272.835938 264.054688 273.59375 263.039062 274.273438 C 262.023438 274.949219 260.960938 275.535156 259.847656 276.035156 C 258.730469 276.53125 257.585938 276.929688 256.402344 277.234375 C 255.222656 277.539062 254.023438 277.738281 252.808594 277.839844 C 251.589844 277.941406 250.375 277.941406 249.160156 277.835938 C 247.945312 277.730469 246.746094 277.523438 245.566406 277.21875 C 206.375 267.078125 112.976562 231.835938 105.453125 125.261719 C 105.378906 124.210938 105.378906 123.160156 105.460938 122.109375 C 105.539062 121.058594 105.695312 120.015625 105.925781 118.988281 C 106.15625 117.957031 106.460938 116.953125 106.839844 115.96875 C 107.214844 114.984375 107.664062 114.03125 108.179688 113.113281 C 108.699219 112.191406 109.28125 111.316406 109.925781 110.484375 C 110.570312 109.648438 111.273438 108.867188 112.03125 108.132812 C 112.792969 107.402344 113.601562 106.730469 114.457031 106.117188 C 115.316406 105.503906 116.214844 104.957031 117.152344 104.472656 L 129.878906 97.933594 C 130.507812 97.609375 131.152344 97.316406 131.8125 97.058594 C 132.472656 96.796875 133.144531 96.570312 133.824219 96.375 C 134.507812 96.179688 135.195312 96.015625 135.894531 95.890625 C 136.589844 95.761719 137.292969 95.671875 138 95.613281 C 138.707031 95.554688 139.414062 95.53125 140.125 95.542969 C 140.832031 95.550781 141.539062 95.597656 142.246094 95.679688 C 142.949219 95.761719 143.648438 95.875 144.339844 96.023438 C 145.035156 96.175781 145.71875 96.355469 146.394531 96.574219 C 147.070312 96.789062 147.730469 97.039062 148.382812 97.320312 C 149.035156 97.601562 149.667969 97.917969 150.289062 98.261719 C 150.910156 98.605469 151.511719 98.976562 152.09375 99.382812 C 152.675781 99.785156 153.238281 100.214844 153.78125 100.675781 C 154.320312 101.132812 154.835938 101.617188 155.332031 102.125 C 155.824219 102.636719 156.292969 103.167969 156.734375 103.722656 C 157.175781 104.277344 157.585938 104.855469 157.972656 105.449219 C 158.355469 106.046875 158.710938 106.660156 159.035156 107.289062 Z M 159.035156 107.289062 " fill-opacity="1" fill-rule="nonzero"/><g clip-path="url(#9fe486265b)"><path fill="#ffffff" d="M 187.460938 0.339844 C 83.546875 0.691406 0.496094 85.140625 1.851562 188.996094 C 1.914062 194.214844 2.195312 199.421875 2.695312 204.613281 C 3.199219 209.808594 3.917969 214.972656 4.855469 220.105469 C 5.792969 225.238281 6.945312 230.324219 8.3125 235.359375 C 9.679688 240.394531 11.257812 245.363281 13.042969 250.269531 C 14.832031 255.171875 16.820312 259.988281 19.015625 264.726562 C 21.210938 269.460938 23.601562 274.09375 26.1875 278.628906 C 28.773438 283.160156 31.542969 287.578125 34.503906 291.875 C 37.460938 296.175781 40.597656 300.339844 43.90625 304.375 C 44.429688 305.011719 44.898438 305.683594 45.316406 306.390625 C 45.738281 307.101562 46.101562 307.835938 46.410156 308.597656 C 46.722656 309.359375 46.972656 310.136719 47.164062 310.9375 C 47.359375 311.738281 47.492188 312.546875 47.5625 313.367188 C 47.632812 314.183594 47.644531 315.003906 47.59375 315.824219 C 47.542969 316.644531 47.429688 317.457031 47.257812 318.261719 C 47.085938 319.066406 46.851562 319.851562 46.5625 320.621094 C 46.273438 321.390625 45.925781 322.132812 45.523438 322.851562 L 29.480469 351.589844 C 25.03125 359.558594 32.28125 368.980469 41.125 366.726562 L 95.472656 352.898438 C 97.367188 352.417969 99.289062 352.277344 101.234375 352.476562 C 103.179688 352.675781 105.03125 353.203125 106.789062 354.058594 C 118.804688 359.894531 131.308594 364.378906 144.292969 367.511719 C 157.28125 370.644531 170.453125 372.355469 183.8125 372.640625 C 288.289062 375.003906 374.042969 291.5625 374.371094 187.109375 C 374.695312 83.800781 290.828125 -0.0078125 187.460938 0.339844 Z M 188.105469 349.75 C 185.429688 349.75 182.761719 349.683594 180.089844 349.550781 C 177.421875 349.421875 174.757812 349.226562 172.097656 348.964844 C 169.4375 348.703125 166.785156 348.375 164.140625 347.980469 C 161.496094 347.589844 158.863281 347.132812 156.242188 346.613281 C 153.621094 346.089844 151.015625 345.507812 148.421875 344.859375 C 145.828125 344.207031 143.253906 343.496094 140.695312 342.71875 C 138.136719 341.945312 135.601562 341.109375 133.085938 340.207031 C 130.566406 339.308594 128.074219 338.347656 125.605469 337.324219 C 123.136719 336.300781 120.695312 335.21875 118.277344 334.078125 C 115.863281 332.933594 113.476562 331.734375 111.117188 330.476562 C 108.761719 329.214844 106.4375 327.898438 104.144531 326.527344 C 101.851562 325.152344 99.59375 323.722656 97.371094 322.238281 C 95.148438 320.757812 92.964844 319.21875 90.816406 317.625 C 88.671875 316.035156 86.5625 314.390625 84.496094 312.699219 C 82.429688 311.003906 80.410156 309.257812 78.429688 307.464844 C 76.449219 305.671875 74.511719 303.828125 72.621094 301.941406 C 70.734375 300.050781 68.890625 298.117188 67.09375 296.136719 C 65.300781 294.15625 63.554688 292.136719 61.859375 290.070312 C 60.164062 288.003906 58.519531 285.898438 56.925781 283.753906 C 55.335938 281.609375 53.796875 279.425781 52.3125 277.203125 C 50.828125 274.984375 49.398438 272.726562 48.023438 270.433594 C 46.648438 268.144531 45.332031 265.820312 44.074219 263.464844 C 42.8125 261.109375 41.609375 258.722656 40.46875 256.308594 C 39.324219 253.890625 38.242188 251.449219 37.21875 248.984375 C 36.195312 246.515625 35.234375 244.023438 34.335938 241.507812 C 33.433594 238.992188 32.597656 236.457031 31.820312 233.898438 C 31.042969 231.34375 30.332031 228.769531 29.683594 226.179688 C 29.03125 223.585938 28.449219 220.980469 27.925781 218.359375 C 27.40625 215.742188 26.949219 213.109375 26.554688 210.464844 C 26.164062 207.824219 25.835938 205.171875 25.574219 202.515625 C 25.3125 199.855469 25.117188 197.191406 24.984375 194.523438 C 24.855469 191.855469 24.789062 189.1875 24.789062 186.515625 C 24.789062 96.363281 97.910156 23.28125 188.105469 23.28125 C 277.949219 23.28125 350.851562 95.796875 351.417969 185.464844 C 351.984375 275.4375 278.121094 349.75 188.105469 349.75 Z M 188.105469 349.75 " fill-opacity="1" fill-rule="nonzero"/></g><path fill="#ffffff" d="M 158.914062 107.15625 L 158.992188 107.304688 L 168.730469 126.613281 C 169.253906 127.652344 169.691406 128.726562 170.042969 129.835938 C 170.394531 130.945312 170.652344 132.074219 170.820312 133.226562 C 170.988281 134.375 171.0625 135.53125 171.042969 136.695312 C 171.027344 137.859375 170.914062 139.011719 170.707031 140.15625 C 170.503906 141.300781 170.207031 142.421875 169.824219 143.519531 C 169.4375 144.617188 168.964844 145.675781 168.40625 146.695312 C 167.851562 147.71875 167.214844 148.6875 166.503906 149.605469 C 165.789062 150.527344 165.007812 151.382812 164.15625 152.171875 C 163.308594 152.960938 162.527344 153.808594 161.816406 154.722656 C 161.105469 155.632812 160.46875 156.59375 159.914062 157.609375 C 159.355469 158.621094 158.886719 159.671875 158.496094 160.761719 C 158.109375 161.851562 157.8125 162.964844 157.605469 164.101562 C 157.394531 165.242188 157.28125 166.386719 157.253906 167.542969 C 157.230469 168.699219 157.300781 169.847656 157.460938 170.992188 C 157.621094 172.140625 157.875 173.261719 158.214844 174.367188 C 158.558594 175.472656 158.984375 176.542969 159.5 177.578125 C 165.347656 189.316406 175.476562 205.492188 190.9375 217.164062 C 191.796875 217.816406 192.703125 218.402344 193.652344 218.921875 C 194.601562 219.441406 195.585938 219.886719 196.601562 220.257812 C 197.617188 220.628906 198.652344 220.921875 199.714844 221.136719 C 200.773438 221.355469 201.84375 221.492188 202.921875 221.546875 C 204.003906 221.605469 205.082031 221.578125 206.160156 221.476562 C 207.234375 221.371094 208.296875 221.1875 209.347656 220.921875 C 210.394531 220.660156 211.417969 220.320312 212.417969 219.902344 C 213.417969 219.484375 214.378906 218.996094 215.300781 218.4375 L 221.574219 214.621094 C 222.980469 213.765625 224.46875 213.078125 226.03125 212.5625 C 227.59375 212.046875 229.195312 211.710938 230.835938 211.5625 C 232.476562 211.410156 234.113281 211.445312 235.742188 211.667969 C 237.375 211.890625 238.960938 212.292969 240.5 212.878906 L 265.433594 222.355469 C 266.097656 222.605469 266.746094 222.890625 267.378906 223.203125 C 268.011719 223.519531 268.628906 223.867188 269.230469 224.242188 C 269.832031 224.617188 270.410156 225.023438 270.972656 225.453125 C 271.53125 225.886719 272.070312 226.347656 272.585938 226.832031 C 273.101562 227.320312 273.59375 227.828125 274.058594 228.363281 C 274.523438 228.894531 274.960938 229.453125 275.371094 230.027344 C 275.78125 230.605469 276.164062 231.203125 276.515625 231.816406 C 276.867188 232.429688 277.191406 233.058594 277.480469 233.707031 C 277.769531 234.351562 278.027344 235.011719 278.253906 235.683594 C 278.480469 236.355469 278.671875 237.035156 278.828125 237.722656 C 278.988281 238.414062 279.113281 239.109375 279.203125 239.8125 C 279.292969 240.515625 279.347656 241.222656 279.367188 241.929688 C 279.390625 242.636719 279.375 243.34375 279.328125 244.050781 C 279.277344 244.757812 279.195312 245.457031 279.078125 246.15625 C 278.960938 246.855469 278.808594 247.546875 278.621094 248.230469 C 278.4375 248.914062 278.21875 249.585938 277.964844 250.246094 C 277.675781 251.007812 277.34375 251.75 276.96875 252.476562 L 270.058594 265.859375 C 269.5 266.945312 268.855469 267.972656 268.121094 268.945312 C 267.386719 269.917969 266.578125 270.824219 265.691406 271.660156 C 264.804688 272.496094 263.855469 273.253906 262.84375 273.929688 C 261.828125 274.605469 260.765625 275.191406 259.652344 275.6875 C 258.539062 276.183594 257.390625 276.585938 256.210938 276.886719 C 255.03125 277.191406 253.832031 277.394531 252.617188 277.492188 C 251.402344 277.59375 250.1875 277.59375 248.972656 277.488281 C 247.757812 277.382812 246.5625 277.179688 245.382812 276.871094 C 206.222656 266.746094 112.894531 231.546875 105.375 125.105469 C 105.300781 124.054688 105.300781 123.007812 105.378906 121.957031 C 105.460938 120.90625 105.613281 119.867188 105.84375 118.839844 C 106.078125 117.8125 106.378906 116.804688 106.757812 115.824219 C 107.136719 114.839844 107.582031 113.890625 108.101562 112.972656 C 108.617188 112.054688 109.199219 111.175781 109.84375 110.34375 C 110.488281 109.511719 111.1875 108.730469 111.949219 108 C 112.707031 107.269531 113.515625 106.597656 114.371094 105.984375 C 115.230469 105.371094 116.125 104.824219 117.0625 104.34375 L 129.78125 97.8125 C 130.410156 97.488281 131.054688 97.195312 131.714844 96.9375 C 132.375 96.675781 133.042969 96.449219 133.726562 96.253906 C 134.40625 96.058594 135.09375 95.898438 135.792969 95.769531 C 136.488281 95.644531 137.191406 95.550781 137.898438 95.492188 C 138.601562 95.433594 139.3125 95.410156 140.019531 95.421875 C 140.726562 95.433594 141.433594 95.480469 142.136719 95.558594 C 142.84375 95.640625 143.539062 95.753906 144.234375 95.90625 C 144.925781 96.054688 145.609375 96.238281 146.285156 96.453125 C 146.957031 96.667969 147.621094 96.917969 148.269531 97.199219 C 148.921875 97.480469 149.554688 97.792969 150.175781 98.136719 C 150.796875 98.480469 151.398438 98.855469 151.980469 99.257812 C 152.5625 99.660156 153.125 100.089844 153.664062 100.550781 C 154.207031 101.007812 154.722656 101.492188 155.214844 102 C 155.707031 102.507812 156.175781 103.039062 156.617188 103.59375 C 157.054688 104.148438 157.46875 104.722656 157.851562 105.320312 C 158.238281 105.914062 158.589844 106.527344 158.914062 107.15625 Z M 158.914062 107.15625 " fill-opacity="1" fill-rule="nonzero"/></svg>