<svg xmlns="http://www.w3.org/2000/svg" xmlns:xlink="http://www.w3.org/1999/xlink" width="500" zoomAndPan="magnify" viewBox="0 0 375 374.999991" height="500" preserveAspectRatio="xMidYMid meet" version="1.0"><defs><clipPath id="afa5a676a9"><path d="M 0 49.21875 L 375 49.21875 L 375 325.96875 L 0 325.96875 Z M 0 49.21875 " clip-rule="nonzero"/></clipPath><clipPath id="6fbb1a2a02"><path d="M 155 133 L 258 133 L 258 247 L 155 247 Z M 155 133 " clip-rule="nonzero"/></clipPath><clipPath id="fd52c42a14"><path d="M 254.1875 128.753906 L 260.074219 241.265625 L 161.769531 246.410156 L 155.886719 133.898438 Z M 254.1875 128.753906 " clip-rule="nonzero"/></clipPath><clipPath id="e14bd836ba"><path d="M 257.128906 184.929688 L 161.761719 246.246094 L 155.886719 133.898438 Z M 257.128906 184.929688 " clip-rule="nonzero"/></clipPath></defs><g clip-path="url(#afa5a676a9)"><path fill="#000000" d="M 62.601562 49.21875 C 28.234375 49.21875 0.152344 77.324219 0.152344 111.710938 L 0.152344 263.476562 C 0.152344 297.867188 28.234375 325.96875 62.601562 325.96875 L 312.398438 325.96875 C 346.765625 325.96875 374.847656 297.867188 374.847656 263.476562 L 374.847656 111.710938 C 374.847656 77.324219 346.765625 49.21875 312.398438 49.21875 Z M 62.601562 76.003906 L 312.398438 76.003906 C 332.398438 76.003906 348.085938 91.695312 348.085938 111.710938 L 348.085938 263.476562 C 348.085938 283.492188 332.398438 299.1875 312.398438 299.1875 L 62.601562 299.1875 C 42.601562 299.1875 26.914062 283.492188 26.914062 263.476562 L 26.914062 111.710938 C 26.914062 91.695312 42.601562 76.003906 62.601562 76.003906 Z M 156.695312 116.175781 C 155.796875 116.148438 154.90625 116.210938 154.023438 116.359375 C 153.140625 116.511719 152.28125 116.75 151.445312 117.074219 C 150.609375 117.398438 149.8125 117.800781 149.058594 118.285156 C 148.304688 118.769531 147.605469 119.324219 146.960938 119.945312 C 146.316406 120.570312 145.742188 121.253906 145.234375 121.996094 C 144.726562 122.734375 144.300781 123.519531 143.949219 124.34375 C 143.601562 125.171875 143.335938 126.023438 143.160156 126.902344 C 142.980469 127.78125 142.894531 128.667969 142.894531 129.566406 L 142.894531 245.621094 C 142.890625 246.445312 142.960938 247.261719 143.105469 248.074219 C 143.253906 248.882812 143.472656 249.675781 143.761719 250.445312 C 144.054688 251.214844 144.414062 251.953125 144.84375 252.65625 C 145.269531 253.359375 145.757812 254.015625 146.308594 254.628906 C 146.855469 255.242188 147.457031 255.800781 148.109375 256.304688 C 148.761719 256.808594 149.453125 257.246094 150.1875 257.621094 C 150.917969 257.996094 151.679688 258.300781 152.46875 258.535156 C 153.257812 258.769531 154.0625 258.929688 154.882812 259.015625 C 157.640625 259.3125 160.246094 258.800781 162.6875 257.480469 L 269.742188 199.453125 C 270.804688 198.878906 271.773438 198.171875 272.644531 197.335938 C 273.519531 196.5 274.265625 195.566406 274.882812 194.527344 C 275.5 193.488281 275.972656 192.390625 276.292969 191.222656 C 276.613281 190.058594 276.773438 188.871094 276.773438 187.664062 C 276.773438 186.457031 276.613281 185.269531 276.292969 184.105469 C 275.972656 182.941406 275.5 181.839844 274.882812 180.800781 C 274.265625 179.761719 273.519531 178.828125 272.644531 177.992188 C 271.773438 177.15625 270.804688 176.449219 269.742188 175.878906 L 162.6875 117.847656 C 160.824219 116.8125 158.824219 116.253906 156.695312 116.175781 Z M 169.65625 152.164062 L 235.171875 187.59375 L 169.65625 223.164062 Z M 169.65625 152.164062 " fill-opacity="1" fill-rule="nonzero"/><path fill="#ffffff" d="M 62.601562 49.21875 C 28.234375 49.21875 0.152344 77.304688 0.152344 111.667969 L 0.152344 263.332031 C 0.152344 297.699219 28.234375 325.78125 62.601562 325.78125 L 312.398438 325.78125 C 346.765625 325.78125 374.847656 297.699219 374.847656 263.332031 L 374.847656 111.667969 C 374.847656 77.304688 346.765625 49.21875 312.398438 49.21875 Z M 62.601562 75.984375 L 312.398438 75.984375 C 332.398438 75.984375 348.085938 91.667969 348.085938 111.667969 L 348.085938 263.332031 C 348.085938 283.332031 332.398438 299.019531 312.398438 299.019531 L 62.601562 299.019531 C 42.601562 299.019531 26.914062 283.332031 26.914062 263.332031 L 26.914062 111.667969 C 26.914062 91.667969 42.601562 75.984375 62.601562 75.984375 Z M 156.695312 116.128906 C 155.796875 116.101562 154.90625 116.164062 154.023438 116.316406 C 153.140625 116.464844 152.28125 116.703125 151.445312 117.027344 C 150.609375 117.351562 149.8125 117.753906 149.058594 118.238281 C 148.304688 118.722656 147.605469 119.273438 146.960938 119.898438 C 146.316406 120.523438 145.742188 121.207031 145.234375 121.945312 C 144.726562 122.683594 144.300781 123.46875 143.949219 124.292969 C 143.601562 125.117188 143.335938 125.972656 143.160156 126.851562 C 142.980469 127.726562 142.894531 128.617188 142.894531 129.511719 L 142.894531 245.488281 C 142.890625 246.3125 142.960938 247.128906 143.105469 247.9375 C 143.253906 248.75 143.472656 249.539062 143.761719 250.308594 C 144.054688 251.078125 144.414062 251.8125 144.84375 252.515625 C 145.269531 253.21875 145.757812 253.878906 146.308594 254.492188 C 146.855469 255.105469 147.457031 255.660156 148.109375 256.164062 C 148.761719 256.667969 149.453125 257.105469 150.1875 257.480469 C 150.917969 257.855469 151.679688 258.15625 152.46875 258.390625 C 153.257812 258.625 154.0625 258.785156 154.882812 258.871094 C 157.640625 259.171875 160.246094 258.660156 162.6875 257.339844 L 269.742188 199.347656 C 270.804688 198.777344 271.773438 198.070312 272.644531 197.238281 C 273.519531 196.402344 274.265625 195.464844 274.882812 194.429688 C 275.5 193.390625 275.972656 192.292969 276.292969 191.128906 C 276.613281 189.964844 276.773438 188.777344 276.773438 187.570312 C 276.773438 186.363281 276.613281 185.175781 276.292969 184.011719 C 275.972656 182.847656 275.5 181.75 274.882812 180.710938 C 274.265625 179.675781 273.519531 178.738281 272.644531 177.902344 C 271.773438 177.070312 270.804688 176.363281 269.742188 175.792969 L 162.6875 117.800781 C 160.824219 116.765625 158.824219 116.210938 156.695312 116.128906 Z M 169.65625 152.09375 L 235.171875 187.5 L 169.65625 223.046875 Z M 169.65625 152.09375 " fill-opacity="1" fill-rule="nonzero"/></g><g clip-path="url(#6fbb1a2a02)"><g clip-path="url(#fd52c42a14)"><g clip-path="url(#e14bd836ba)"><path fill="#ffffff" d="M 254.1875 128.753906 L 260.074219 241.265625 L 161.769531 246.410156 L 155.886719 133.898438 Z M 254.1875 128.753906 " fill-opacity="1" fill-rule="nonzero"/></g></g></g></svg>