<svg xmlns="http://www.w3.org/2000/svg" xmlns:xlink="http://www.w3.org/1999/xlink" width="500" zoomAndPan="magnify" viewBox="0 0 375 374.999991" height="500" preserveAspectRatio="xMidYMid meet" version="1.0"><defs><clipPath id="ce17bcc714"><path d="M 0 68.578125 L 375 68.578125 L 375 314.578125 L 0 314.578125 Z M 0 68.578125 " clip-rule="nonzero"/></clipPath><clipPath id="23fc85be2c"><path d="M 95.039062 110.328125 L 291.230469 110.328125 L 291.230469 255.820312 L 95.039062 255.820312 Z M 95.039062 110.328125 " clip-rule="nonzero"/></clipPath><clipPath id="0b1b0a3074"><path d="M 26.648438 81.941406 L 348.398438 81.941406 L 348.398438 292.691406 L 26.648438 292.691406 Z M 26.648438 81.941406 " clip-rule="nonzero"/></clipPath></defs><g clip-path="url(#ce17bcc714)"><path fill="#ffffff" d="M 317.664062 68.578125 L 57.335938 68.578125 C 25.785156 68.578125 0.15625 94.207031 0.15625 125.753906 L 0.15625 257.496094 C 0.15625 289.042969 25.785156 314.671875 57.335938 314.671875 L 317.664062 314.671875 C 349.214844 314.671875 374.84375 289.042969 374.84375 257.496094 L 374.84375 125.753906 C 374.84375 94.207031 349.214844 68.578125 317.664062 68.578125 Z M 148.980469 258.394531 L 148.980469 124.929688 L 264.535156 191.699219 L 148.980469 258.46875 Z M 148.980469 258.394531 " fill-opacity="1" fill-rule="nonzero"/></g><g clip-path="url(#23fc85be2c)"><path fill="#ffffff" d="M 95.039062 110.328125 L 291.113281 110.328125 L 291.113281 255.820312 L 95.039062 255.820312 Z M 95.039062 110.328125 " fill-opacity="1" fill-rule="nonzero"/></g><g clip-path="url(#0b1b0a3074)"><path fill="#d6030d" d="M 299.15625 81.941406 L 75.832031 81.941406 C 48.765625 81.941406 26.78125 103.925781 26.78125 130.992188 L 26.78125 244.003906 C 26.78125 271.070312 48.765625 293.054688 75.832031 293.054688 L 299.15625 293.054688 C 326.222656 293.054688 348.207031 271.070312 348.207031 244.003906 L 348.207031 130.992188 C 348.207031 103.925781 326.222656 81.941406 299.15625 81.941406 Z M 154.453125 244.777344 L 154.453125 130.285156 L 253.578125 187.5625 L 154.453125 244.839844 Z M 154.453125 244.777344 " fill-opacity="1" fill-rule="nonzero"/></g></svg>